M48
; DRILL file {KiCad 8.0.0} date 2026-04-06T11:17:31+0200
; FORMAT={-:-/ absolute / inch / decimal}
; #@! TF.CreationDate,2026-04-06T11:17:31+02:00
; #@! TF.GenerationSoftware,Kicad,Pcbnew,8.0.0
; #@! TF.FileFunction,Plated,1,2,PTH
FMAT,2
INCH
; #@! TA.AperFunction,Plated,PTH,ComponentDrill
T1C0.0315
; #@! TA.AperFunction,Plated,PTH,ComponentDrill
T2C0.0354
; #@! TA.AperFunction,Plated,PTH,ComponentDrill
T3C0.0472
; #@! TA.AperFunction,Plated,PTH,ComponentDrill
T4C0.0512
%
G90
G05
T1
X5.6264Y-3.7803
X5.6295Y-4.0465
X5.6669Y-3.1961
X6.0264Y-3.7803
X6.0295Y-4.0465
X6.0669Y-3.1961
X6.2185Y-3.1961
X6.2449Y-3.6697
X6.3169Y-3.1961
X6.3433Y-3.6697
X6.476Y-3.3189
X6.476Y-3.4173
T2
X5.3854Y-3.2382
X5.4063Y-4.0197
X6.0469Y-4.2469
X6.2091Y-2.965
X6.4669Y-4.2665
X6.5449Y-3.998
T3
X5.5677Y-3.4445
X6.0677Y-3.4445
T4
X5.0469Y-3.7563
X5.0469Y-3.9563
X5.0474Y-3.214
X5.0474Y-3.414
X6.9148Y-3.325
X6.9148Y-3.525
X6.9148Y-3.725
X6.9148Y-3.925
M30
