%TF.GenerationSoftware,KiCad,Pcbnew,8.0.0*%
%TF.CreationDate,2026-04-06T11:17:12+02:00*%
%TF.ProjectId,pcb_1,7063625f-312e-46b6-9963-61645f706362,rev?*%
%TF.SameCoordinates,Original*%
%TF.FileFunction,Soldermask,Top*%
%TF.FilePolarity,Negative*%
%FSLAX46Y46*%
G04 Gerber Fmt 4.6, Leading zero omitted, Abs format (unit mm)*
G04 Created by KiCad (PCBNEW 8.0.0) date 2026-04-06 11:17:12*
%MOMM*%
%LPD*%
G01*
G04 APERTURE LIST*
G04 Aperture macros list*
%AMRoundRect*
0 Rectangle with rounded corners*
0 $1 Rounding radius*
0 $2 $3 $4 $5 $6 $7 $8 $9 X,Y pos of 4 corners*
0 Add a 4 corners polygon primitive as box body*
4,1,4,$2,$3,$4,$5,$6,$7,$8,$9,$2,$3,0*
0 Add four circle primitives for the rounded corners*
1,1,$1+$1,$2,$3*
1,1,$1+$1,$4,$5*
1,1,$1+$1,$6,$7*
1,1,$1+$1,$8,$9*
0 Add four rect primitives between the rounded corners*
20,1,$1+$1,$2,$3,$4,$5,0*
20,1,$1+$1,$4,$5,$6,$7,0*
20,1,$1+$1,$6,$7,$8,$9,0*
20,1,$1+$1,$8,$9,$2,$3,0*%
G04 Aperture macros list end*
%ADD10R,2.600000X2.600000*%
%ADD11C,2.600000*%
%ADD12C,1.800000*%
%ADD13C,1.600000*%
%ADD14O,1.600000X1.600000*%
%ADD15RoundRect,0.150000X-0.512500X-0.150000X0.512500X-0.150000X0.512500X0.150000X-0.512500X0.150000X0*%
%ADD16C,2.400000*%
%ADD17O,2.400000X2.400000*%
%ADD18C,3.200000*%
G04 APERTURE END LIST*
D10*
%TO.C,J3*%
X128190000Y-95410000D03*
D11*
X128190000Y-100490000D03*
%TD*%
D12*
%TO.C,TP4*%
X166240000Y-101550000D03*
%TD*%
D13*
%TO.C,R1*%
X143940000Y-81180000D03*
D14*
X154100000Y-81180000D03*
%TD*%
D15*
%TO.C,U3*%
X158515000Y-98200000D03*
X158515000Y-99150000D03*
X158515000Y-100100000D03*
X160790000Y-100100000D03*
X160790000Y-98200000D03*
%TD*%
D13*
%TO.C,R6*%
X142910000Y-96020000D03*
D14*
X153070000Y-96020000D03*
%TD*%
D12*
%TO.C,TP1*%
X136790000Y-82250000D03*
%TD*%
D13*
%TO.C,R5*%
X153150000Y-102780000D03*
D14*
X142990000Y-102780000D03*
%TD*%
D13*
%TO.C,C1*%
X157950000Y-81180000D03*
X160450000Y-81180000D03*
%TD*%
D12*
%TO.C,TP5*%
X157710000Y-75310000D03*
%TD*%
D15*
%TO.C,U1*%
X158270000Y-86090000D03*
X158270000Y-87040000D03*
X158270000Y-87990000D03*
X160545000Y-87990000D03*
X160545000Y-86090000D03*
%TD*%
D13*
%TO.C,C4*%
X161120000Y-93210000D03*
X158620000Y-93210000D03*
%TD*%
%TO.C,C2*%
X164490000Y-86800000D03*
X164490000Y-84300000D03*
%TD*%
D16*
%TO.C,R_shunt1*%
X154120000Y-87490000D03*
D17*
X141420000Y-87490000D03*
%TD*%
D10*
%TO.C,J1*%
X175635000Y-99695000D03*
D11*
X175635000Y-94615000D03*
X175635000Y-89535000D03*
X175635000Y-84455000D03*
%TD*%
D18*
%TO.C,REF\u002A\u002A*%
X123840000Y-111840000D03*
%TD*%
D12*
%TO.C,TP3*%
X153590000Y-107870000D03*
%TD*%
%TO.C,TP6*%
X137320000Y-102100000D03*
%TD*%
D18*
%TO.C,REF\u002A\u002A*%
X178200000Y-111630000D03*
%TD*%
D12*
%TO.C,TP2*%
X164260000Y-108370000D03*
%TD*%
D18*
%TO.C,REF\u002A\u002A*%
X123829949Y-73734339D03*
%TD*%
D10*
%TO.C,J2*%
X128205000Y-81635000D03*
D11*
X128205000Y-86715000D03*
%TD*%
D18*
%TO.C,REF\u002A\u002A*%
X178190000Y-73720000D03*
%TD*%
M02*
