%TF.GenerationSoftware,KiCad,Pcbnew,8.0.0*%
%TF.CreationDate,2026-04-06T11:17:12+02:00*%
%TF.ProjectId,pcb_1,7063625f-312e-46b6-9963-61645f706362,rev?*%
%TF.SameCoordinates,Original*%
%TF.FileFunction,Legend,Top*%
%TF.FilePolarity,Positive*%
%FSLAX46Y46*%
G04 Gerber Fmt 4.6, Leading zero omitted, Abs format (unit mm)*
G04 Created by KiCad (PCBNEW 8.0.0) date 2026-04-06 11:17:12*
%MOMM*%
%LPD*%
G01*
G04 APERTURE LIST*
%ADD10C,0.100000*%
%ADD11C,0.300000*%
%ADD12C,0.150000*%
%ADD13C,0.120000*%
G04 APERTURE END LIST*
D10*
X181606470Y-85992968D02*
X181606470Y-85516778D01*
X181892185Y-86088206D02*
X180892185Y-85754873D01*
X180892185Y-85754873D02*
X181892185Y-85421540D01*
X181892185Y-85088206D02*
X180892185Y-85088206D01*
X180892185Y-85088206D02*
X180892185Y-84850111D01*
X180892185Y-84850111D02*
X180939804Y-84707254D01*
X180939804Y-84707254D02*
X181035042Y-84612016D01*
X181035042Y-84612016D02*
X181130280Y-84564397D01*
X181130280Y-84564397D02*
X181320756Y-84516778D01*
X181320756Y-84516778D02*
X181463613Y-84516778D01*
X181463613Y-84516778D02*
X181654089Y-84564397D01*
X181654089Y-84564397D02*
X181749327Y-84612016D01*
X181749327Y-84612016D02*
X181844566Y-84707254D01*
X181844566Y-84707254D02*
X181892185Y-84850111D01*
X181892185Y-84850111D02*
X181892185Y-85088206D01*
X181796946Y-83516778D02*
X181844566Y-83564397D01*
X181844566Y-83564397D02*
X181892185Y-83707254D01*
X181892185Y-83707254D02*
X181892185Y-83802492D01*
X181892185Y-83802492D02*
X181844566Y-83945349D01*
X181844566Y-83945349D02*
X181749327Y-84040587D01*
X181749327Y-84040587D02*
X181654089Y-84088206D01*
X181654089Y-84088206D02*
X181463613Y-84135825D01*
X181463613Y-84135825D02*
X181320756Y-84135825D01*
X181320756Y-84135825D02*
X181130280Y-84088206D01*
X181130280Y-84088206D02*
X181035042Y-84040587D01*
X181035042Y-84040587D02*
X180939804Y-83945349D01*
X180939804Y-83945349D02*
X180892185Y-83802492D01*
X180892185Y-83802492D02*
X180892185Y-83707254D01*
X180892185Y-83707254D02*
X180939804Y-83564397D01*
X180939804Y-83564397D02*
X180987423Y-83516778D01*
X180987423Y-83135825D02*
X180939804Y-83088206D01*
X180939804Y-83088206D02*
X180892185Y-82992968D01*
X180892185Y-82992968D02*
X180892185Y-82754873D01*
X180892185Y-82754873D02*
X180939804Y-82659635D01*
X180939804Y-82659635D02*
X180987423Y-82612016D01*
X180987423Y-82612016D02*
X181082661Y-82564397D01*
X181082661Y-82564397D02*
X181177899Y-82564397D01*
X181177899Y-82564397D02*
X181320756Y-82612016D01*
X181320756Y-82612016D02*
X181892185Y-83183444D01*
X181892185Y-83183444D02*
X181892185Y-82564397D01*
X122409961Y-100127693D02*
X122457580Y-100032455D01*
X122457580Y-100032455D02*
X122457580Y-99889598D01*
X122457580Y-99889598D02*
X122409961Y-99746741D01*
X122409961Y-99746741D02*
X122314723Y-99651503D01*
X122314723Y-99651503D02*
X122219485Y-99603884D01*
X122219485Y-99603884D02*
X122029009Y-99556265D01*
X122029009Y-99556265D02*
X121886152Y-99556265D01*
X121886152Y-99556265D02*
X121695676Y-99603884D01*
X121695676Y-99603884D02*
X121600438Y-99651503D01*
X121600438Y-99651503D02*
X121505200Y-99746741D01*
X121505200Y-99746741D02*
X121457580Y-99889598D01*
X121457580Y-99889598D02*
X121457580Y-99984836D01*
X121457580Y-99984836D02*
X121505200Y-100127693D01*
X121505200Y-100127693D02*
X121552819Y-100175312D01*
X121552819Y-100175312D02*
X121886152Y-100175312D01*
X121886152Y-100175312D02*
X121886152Y-99984836D01*
X121457580Y-100603884D02*
X122457580Y-100603884D01*
X122457580Y-100603884D02*
X121457580Y-101175312D01*
X121457580Y-101175312D02*
X122457580Y-101175312D01*
X121457580Y-101651503D02*
X122457580Y-101651503D01*
X122457580Y-101651503D02*
X122457580Y-101889598D01*
X122457580Y-101889598D02*
X122409961Y-102032455D01*
X122409961Y-102032455D02*
X122314723Y-102127693D01*
X122314723Y-102127693D02*
X122219485Y-102175312D01*
X122219485Y-102175312D02*
X122029009Y-102222931D01*
X122029009Y-102222931D02*
X121886152Y-102222931D01*
X121886152Y-102222931D02*
X121695676Y-102175312D01*
X121695676Y-102175312D02*
X121600438Y-102127693D01*
X121600438Y-102127693D02*
X121505200Y-102032455D01*
X121505200Y-102032455D02*
X121457580Y-101889598D01*
X121457580Y-101889598D02*
X121457580Y-101651503D01*
X149573884Y-112282419D02*
X149573884Y-111282419D01*
X149573884Y-111282419D02*
X150145312Y-112282419D01*
X150145312Y-112282419D02*
X150145312Y-111282419D01*
X150764360Y-112282419D02*
X150669122Y-112234800D01*
X150669122Y-112234800D02*
X150621503Y-112187180D01*
X150621503Y-112187180D02*
X150573884Y-112091942D01*
X150573884Y-112091942D02*
X150573884Y-111806228D01*
X150573884Y-111806228D02*
X150621503Y-111710990D01*
X150621503Y-111710990D02*
X150669122Y-111663371D01*
X150669122Y-111663371D02*
X150764360Y-111615752D01*
X150764360Y-111615752D02*
X150907217Y-111615752D01*
X150907217Y-111615752D02*
X151002455Y-111663371D01*
X151002455Y-111663371D02*
X151050074Y-111710990D01*
X151050074Y-111710990D02*
X151097693Y-111806228D01*
X151097693Y-111806228D02*
X151097693Y-112091942D01*
X151097693Y-112091942D02*
X151050074Y-112187180D01*
X151050074Y-112187180D02*
X151002455Y-112234800D01*
X151002455Y-112234800D02*
X150907217Y-112282419D01*
X150907217Y-112282419D02*
X150764360Y-112282419D01*
X151954836Y-112282419D02*
X151954836Y-111282419D01*
X151954836Y-112234800D02*
X151859598Y-112282419D01*
X151859598Y-112282419D02*
X151669122Y-112282419D01*
X151669122Y-112282419D02*
X151573884Y-112234800D01*
X151573884Y-112234800D02*
X151526265Y-112187180D01*
X151526265Y-112187180D02*
X151478646Y-112091942D01*
X151478646Y-112091942D02*
X151478646Y-111806228D01*
X151478646Y-111806228D02*
X151526265Y-111710990D01*
X151526265Y-111710990D02*
X151573884Y-111663371D01*
X151573884Y-111663371D02*
X151669122Y-111615752D01*
X151669122Y-111615752D02*
X151859598Y-111615752D01*
X151859598Y-111615752D02*
X151954836Y-111663371D01*
X152573884Y-112282419D02*
X152478646Y-112234800D01*
X152478646Y-112234800D02*
X152431027Y-112187180D01*
X152431027Y-112187180D02*
X152383408Y-112091942D01*
X152383408Y-112091942D02*
X152383408Y-111806228D01*
X152383408Y-111806228D02*
X152431027Y-111710990D01*
X152431027Y-111710990D02*
X152478646Y-111663371D01*
X152478646Y-111663371D02*
X152573884Y-111615752D01*
X152573884Y-111615752D02*
X152716741Y-111615752D01*
X152716741Y-111615752D02*
X152811979Y-111663371D01*
X152811979Y-111663371D02*
X152859598Y-111710990D01*
X152859598Y-111710990D02*
X152907217Y-111806228D01*
X152907217Y-111806228D02*
X152907217Y-112091942D01*
X152907217Y-112091942D02*
X152859598Y-112187180D01*
X152859598Y-112187180D02*
X152811979Y-112234800D01*
X152811979Y-112234800D02*
X152716741Y-112282419D01*
X152716741Y-112282419D02*
X152573884Y-112282419D01*
X153097694Y-112377657D02*
X153859598Y-112377657D01*
X154097694Y-112282419D02*
X154097694Y-111282419D01*
X154097694Y-111282419D02*
X154335789Y-111282419D01*
X154335789Y-111282419D02*
X154478646Y-111330038D01*
X154478646Y-111330038D02*
X154573884Y-111425276D01*
X154573884Y-111425276D02*
X154621503Y-111520514D01*
X154621503Y-111520514D02*
X154669122Y-111710990D01*
X154669122Y-111710990D02*
X154669122Y-111853847D01*
X154669122Y-111853847D02*
X154621503Y-112044323D01*
X154621503Y-112044323D02*
X154573884Y-112139561D01*
X154573884Y-112139561D02*
X154478646Y-112234800D01*
X154478646Y-112234800D02*
X154335789Y-112282419D01*
X154335789Y-112282419D02*
X154097694Y-112282419D01*
X155097694Y-112282419D02*
X155097694Y-111615752D01*
X155097694Y-111282419D02*
X155050075Y-111330038D01*
X155050075Y-111330038D02*
X155097694Y-111377657D01*
X155097694Y-111377657D02*
X155145313Y-111330038D01*
X155145313Y-111330038D02*
X155097694Y-111282419D01*
X155097694Y-111282419D02*
X155097694Y-111377657D01*
X155478646Y-111615752D02*
X155716741Y-112282419D01*
X155716741Y-112282419D02*
X155954836Y-111615752D01*
X156335789Y-112282419D02*
X156335789Y-111615752D01*
X156335789Y-111282419D02*
X156288170Y-111330038D01*
X156288170Y-111330038D02*
X156335789Y-111377657D01*
X156335789Y-111377657D02*
X156383408Y-111330038D01*
X156383408Y-111330038D02*
X156335789Y-111282419D01*
X156335789Y-111282419D02*
X156335789Y-111377657D01*
X156764360Y-112234800D02*
X156859598Y-112282419D01*
X156859598Y-112282419D02*
X157050074Y-112282419D01*
X157050074Y-112282419D02*
X157145312Y-112234800D01*
X157145312Y-112234800D02*
X157192931Y-112139561D01*
X157192931Y-112139561D02*
X157192931Y-112091942D01*
X157192931Y-112091942D02*
X157145312Y-111996704D01*
X157145312Y-111996704D02*
X157050074Y-111949085D01*
X157050074Y-111949085D02*
X156907217Y-111949085D01*
X156907217Y-111949085D02*
X156811979Y-111901466D01*
X156811979Y-111901466D02*
X156764360Y-111806228D01*
X156764360Y-111806228D02*
X156764360Y-111758609D01*
X156764360Y-111758609D02*
X156811979Y-111663371D01*
X156811979Y-111663371D02*
X156907217Y-111615752D01*
X156907217Y-111615752D02*
X157050074Y-111615752D01*
X157050074Y-111615752D02*
X157145312Y-111663371D01*
X157764360Y-112282419D02*
X157669122Y-112234800D01*
X157669122Y-112234800D02*
X157621503Y-112187180D01*
X157621503Y-112187180D02*
X157573884Y-112091942D01*
X157573884Y-112091942D02*
X157573884Y-111806228D01*
X157573884Y-111806228D02*
X157621503Y-111710990D01*
X157621503Y-111710990D02*
X157669122Y-111663371D01*
X157669122Y-111663371D02*
X157764360Y-111615752D01*
X157764360Y-111615752D02*
X157907217Y-111615752D01*
X157907217Y-111615752D02*
X158002455Y-111663371D01*
X158002455Y-111663371D02*
X158050074Y-111710990D01*
X158050074Y-111710990D02*
X158097693Y-111806228D01*
X158097693Y-111806228D02*
X158097693Y-112091942D01*
X158097693Y-112091942D02*
X158050074Y-112187180D01*
X158050074Y-112187180D02*
X158002455Y-112234800D01*
X158002455Y-112234800D02*
X157907217Y-112282419D01*
X157907217Y-112282419D02*
X157764360Y-112282419D01*
X158526265Y-112282419D02*
X158526265Y-111615752D01*
X158526265Y-111806228D02*
X158573884Y-111710990D01*
X158573884Y-111710990D02*
X158621503Y-111663371D01*
X158621503Y-111663371D02*
X158716741Y-111615752D01*
X158716741Y-111615752D02*
X158811979Y-111615752D01*
X122344270Y-86304382D02*
X122391889Y-86209144D01*
X122391889Y-86209144D02*
X122391889Y-86066287D01*
X122391889Y-86066287D02*
X122344270Y-85923430D01*
X122344270Y-85923430D02*
X122249032Y-85828192D01*
X122249032Y-85828192D02*
X122153794Y-85780573D01*
X122153794Y-85780573D02*
X121963318Y-85732954D01*
X121963318Y-85732954D02*
X121820461Y-85732954D01*
X121820461Y-85732954D02*
X121629985Y-85780573D01*
X121629985Y-85780573D02*
X121534747Y-85828192D01*
X121534747Y-85828192D02*
X121439509Y-85923430D01*
X121439509Y-85923430D02*
X121391889Y-86066287D01*
X121391889Y-86066287D02*
X121391889Y-86161525D01*
X121391889Y-86161525D02*
X121439509Y-86304382D01*
X121439509Y-86304382D02*
X121487128Y-86352001D01*
X121487128Y-86352001D02*
X121820461Y-86352001D01*
X121820461Y-86352001D02*
X121820461Y-86161525D01*
X121391889Y-86780573D02*
X122391889Y-86780573D01*
X122391889Y-86780573D02*
X121391889Y-87352001D01*
X121391889Y-87352001D02*
X122391889Y-87352001D01*
X121391889Y-87828192D02*
X122391889Y-87828192D01*
X122391889Y-87828192D02*
X122391889Y-88066287D01*
X122391889Y-88066287D02*
X122344270Y-88209144D01*
X122344270Y-88209144D02*
X122249032Y-88304382D01*
X122249032Y-88304382D02*
X122153794Y-88352001D01*
X122153794Y-88352001D02*
X121963318Y-88399620D01*
X121963318Y-88399620D02*
X121820461Y-88399620D01*
X121820461Y-88399620D02*
X121629985Y-88352001D01*
X121629985Y-88352001D02*
X121534747Y-88304382D01*
X121534747Y-88304382D02*
X121439509Y-88209144D01*
X121439509Y-88209144D02*
X121391889Y-88066287D01*
X121391889Y-88066287D02*
X121391889Y-87828192D01*
X155444360Y-78052419D02*
X155634836Y-78052419D01*
X155634836Y-78052419D02*
X155730074Y-78100038D01*
X155730074Y-78100038D02*
X155825312Y-78195276D01*
X155825312Y-78195276D02*
X155872931Y-78385752D01*
X155872931Y-78385752D02*
X155872931Y-78719085D01*
X155872931Y-78719085D02*
X155825312Y-78909561D01*
X155825312Y-78909561D02*
X155730074Y-79004800D01*
X155730074Y-79004800D02*
X155634836Y-79052419D01*
X155634836Y-79052419D02*
X155444360Y-79052419D01*
X155444360Y-79052419D02*
X155349122Y-79004800D01*
X155349122Y-79004800D02*
X155253884Y-78909561D01*
X155253884Y-78909561D02*
X155206265Y-78719085D01*
X155206265Y-78719085D02*
X155206265Y-78385752D01*
X155206265Y-78385752D02*
X155253884Y-78195276D01*
X155253884Y-78195276D02*
X155349122Y-78100038D01*
X155349122Y-78100038D02*
X155444360Y-78052419D01*
X156730074Y-78385752D02*
X156730074Y-79052419D01*
X156301503Y-78385752D02*
X156301503Y-78909561D01*
X156301503Y-78909561D02*
X156349122Y-79004800D01*
X156349122Y-79004800D02*
X156444360Y-79052419D01*
X156444360Y-79052419D02*
X156587217Y-79052419D01*
X156587217Y-79052419D02*
X156682455Y-79004800D01*
X156682455Y-79004800D02*
X156730074Y-78957180D01*
X157063408Y-78385752D02*
X157444360Y-78385752D01*
X157206265Y-78052419D02*
X157206265Y-78909561D01*
X157206265Y-78909561D02*
X157253884Y-79004800D01*
X157253884Y-79004800D02*
X157349122Y-79052419D01*
X157349122Y-79052419D02*
X157444360Y-79052419D01*
X157539599Y-79147657D02*
X158301503Y-79147657D01*
X158539599Y-79052419D02*
X158539599Y-78052419D01*
X159015789Y-79052419D02*
X159015789Y-78052419D01*
X159015789Y-78052419D02*
X159587217Y-79052419D01*
X159587217Y-79052419D02*
X159587217Y-78052419D01*
X160015789Y-78766704D02*
X160491979Y-78766704D01*
X159920551Y-79052419D02*
X160253884Y-78052419D01*
X160253884Y-78052419D02*
X160587217Y-79052419D01*
X121387580Y-92753884D02*
X122387580Y-92753884D01*
X122387580Y-92753884D02*
X121673295Y-93087217D01*
X121673295Y-93087217D02*
X122387580Y-93420550D01*
X122387580Y-93420550D02*
X121387580Y-93420550D01*
X122387580Y-93753884D02*
X122387580Y-94325312D01*
X121387580Y-94039598D02*
X122387580Y-94039598D01*
X122387580Y-94563408D02*
X122387580Y-95182455D01*
X122387580Y-95182455D02*
X122006628Y-94849122D01*
X122006628Y-94849122D02*
X122006628Y-94991979D01*
X122006628Y-94991979D02*
X121959009Y-95087217D01*
X121959009Y-95087217D02*
X121911390Y-95134836D01*
X121911390Y-95134836D02*
X121816152Y-95182455D01*
X121816152Y-95182455D02*
X121578057Y-95182455D01*
X121578057Y-95182455D02*
X121482819Y-95134836D01*
X121482819Y-95134836D02*
X121435200Y-95087217D01*
X121435200Y-95087217D02*
X121387580Y-94991979D01*
X121387580Y-94991979D02*
X121387580Y-94706265D01*
X121387580Y-94706265D02*
X121435200Y-94611027D01*
X121435200Y-94611027D02*
X121482819Y-94563408D01*
X122387580Y-96039598D02*
X122387580Y-95849122D01*
X122387580Y-95849122D02*
X122339961Y-95753884D01*
X122339961Y-95753884D02*
X122292342Y-95706265D01*
X122292342Y-95706265D02*
X122149485Y-95611027D01*
X122149485Y-95611027D02*
X121959009Y-95563408D01*
X121959009Y-95563408D02*
X121578057Y-95563408D01*
X121578057Y-95563408D02*
X121482819Y-95611027D01*
X121482819Y-95611027D02*
X121435200Y-95658646D01*
X121435200Y-95658646D02*
X121387580Y-95753884D01*
X121387580Y-95753884D02*
X121387580Y-95944360D01*
X121387580Y-95944360D02*
X121435200Y-96039598D01*
X121435200Y-96039598D02*
X121482819Y-96087217D01*
X121482819Y-96087217D02*
X121578057Y-96134836D01*
X121578057Y-96134836D02*
X121816152Y-96134836D01*
X121816152Y-96134836D02*
X121911390Y-96087217D01*
X121911390Y-96087217D02*
X121959009Y-96039598D01*
X121959009Y-96039598D02*
X122006628Y-95944360D01*
X122006628Y-95944360D02*
X122006628Y-95753884D01*
X122006628Y-95753884D02*
X121959009Y-95658646D01*
X121959009Y-95658646D02*
X121911390Y-95611027D01*
X121911390Y-95611027D02*
X121816152Y-95563408D01*
X122387580Y-96753884D02*
X122387580Y-96849122D01*
X122387580Y-96849122D02*
X122339961Y-96944360D01*
X122339961Y-96944360D02*
X122292342Y-96991979D01*
X122292342Y-96991979D02*
X122197104Y-97039598D01*
X122197104Y-97039598D02*
X122006628Y-97087217D01*
X122006628Y-97087217D02*
X121768533Y-97087217D01*
X121768533Y-97087217D02*
X121578057Y-97039598D01*
X121578057Y-97039598D02*
X121482819Y-96991979D01*
X121482819Y-96991979D02*
X121435200Y-96944360D01*
X121435200Y-96944360D02*
X121387580Y-96849122D01*
X121387580Y-96849122D02*
X121387580Y-96753884D01*
X121387580Y-96753884D02*
X121435200Y-96658646D01*
X121435200Y-96658646D02*
X121482819Y-96611027D01*
X121482819Y-96611027D02*
X121578057Y-96563408D01*
X121578057Y-96563408D02*
X121768533Y-96515789D01*
X121768533Y-96515789D02*
X122006628Y-96515789D01*
X122006628Y-96515789D02*
X122197104Y-96563408D01*
X122197104Y-96563408D02*
X122292342Y-96611027D01*
X122292342Y-96611027D02*
X122339961Y-96658646D01*
X122339961Y-96658646D02*
X122387580Y-96753884D01*
X121959009Y-97658646D02*
X122006628Y-97563408D01*
X122006628Y-97563408D02*
X122054247Y-97515789D01*
X122054247Y-97515789D02*
X122149485Y-97468170D01*
X122149485Y-97468170D02*
X122197104Y-97468170D01*
X122197104Y-97468170D02*
X122292342Y-97515789D01*
X122292342Y-97515789D02*
X122339961Y-97563408D01*
X122339961Y-97563408D02*
X122387580Y-97658646D01*
X122387580Y-97658646D02*
X122387580Y-97849122D01*
X122387580Y-97849122D02*
X122339961Y-97944360D01*
X122339961Y-97944360D02*
X122292342Y-97991979D01*
X122292342Y-97991979D02*
X122197104Y-98039598D01*
X122197104Y-98039598D02*
X122149485Y-98039598D01*
X122149485Y-98039598D02*
X122054247Y-97991979D01*
X122054247Y-97991979D02*
X122006628Y-97944360D01*
X122006628Y-97944360D02*
X121959009Y-97849122D01*
X121959009Y-97849122D02*
X121959009Y-97658646D01*
X121959009Y-97658646D02*
X121911390Y-97563408D01*
X121911390Y-97563408D02*
X121863771Y-97515789D01*
X121863771Y-97515789D02*
X121768533Y-97468170D01*
X121768533Y-97468170D02*
X121578057Y-97468170D01*
X121578057Y-97468170D02*
X121482819Y-97515789D01*
X121482819Y-97515789D02*
X121435200Y-97563408D01*
X121435200Y-97563408D02*
X121387580Y-97658646D01*
X121387580Y-97658646D02*
X121387580Y-97849122D01*
X121387580Y-97849122D02*
X121435200Y-97944360D01*
X121435200Y-97944360D02*
X121482819Y-97991979D01*
X121482819Y-97991979D02*
X121578057Y-98039598D01*
X121578057Y-98039598D02*
X121768533Y-98039598D01*
X121768533Y-98039598D02*
X121863771Y-97991979D01*
X121863771Y-97991979D02*
X121911390Y-97944360D01*
X121911390Y-97944360D02*
X121959009Y-97849122D01*
X181042871Y-100912805D02*
X181042871Y-100293758D01*
X181042871Y-100293758D02*
X181423823Y-100627091D01*
X181423823Y-100627091D02*
X181423823Y-100484234D01*
X181423823Y-100484234D02*
X181471442Y-100388996D01*
X181471442Y-100388996D02*
X181519061Y-100341377D01*
X181519061Y-100341377D02*
X181614299Y-100293758D01*
X181614299Y-100293758D02*
X181852394Y-100293758D01*
X181852394Y-100293758D02*
X181947632Y-100341377D01*
X181947632Y-100341377D02*
X181995252Y-100388996D01*
X181995252Y-100388996D02*
X182042871Y-100484234D01*
X182042871Y-100484234D02*
X182042871Y-100769948D01*
X182042871Y-100769948D02*
X181995252Y-100865186D01*
X181995252Y-100865186D02*
X181947632Y-100912805D01*
X181042871Y-100008043D02*
X182042871Y-99674710D01*
X182042871Y-99674710D02*
X181042871Y-99341377D01*
X181042871Y-99103281D02*
X181042871Y-98484234D01*
X181042871Y-98484234D02*
X181423823Y-98817567D01*
X181423823Y-98817567D02*
X181423823Y-98674710D01*
X181423823Y-98674710D02*
X181471442Y-98579472D01*
X181471442Y-98579472D02*
X181519061Y-98531853D01*
X181519061Y-98531853D02*
X181614299Y-98484234D01*
X181614299Y-98484234D02*
X181852394Y-98484234D01*
X181852394Y-98484234D02*
X181947632Y-98531853D01*
X181947632Y-98531853D02*
X181995252Y-98579472D01*
X181995252Y-98579472D02*
X182042871Y-98674710D01*
X182042871Y-98674710D02*
X182042871Y-98960424D01*
X182042871Y-98960424D02*
X181995252Y-99055662D01*
X181995252Y-99055662D02*
X181947632Y-99103281D01*
X135301027Y-85352419D02*
X135634360Y-86352419D01*
X135634360Y-86352419D02*
X135967693Y-85352419D01*
X136634360Y-85828609D02*
X136777217Y-85876228D01*
X136777217Y-85876228D02*
X136824836Y-85923847D01*
X136824836Y-85923847D02*
X136872455Y-86019085D01*
X136872455Y-86019085D02*
X136872455Y-86161942D01*
X136872455Y-86161942D02*
X136824836Y-86257180D01*
X136824836Y-86257180D02*
X136777217Y-86304800D01*
X136777217Y-86304800D02*
X136681979Y-86352419D01*
X136681979Y-86352419D02*
X136301027Y-86352419D01*
X136301027Y-86352419D02*
X136301027Y-85352419D01*
X136301027Y-85352419D02*
X136634360Y-85352419D01*
X136634360Y-85352419D02*
X136729598Y-85400038D01*
X136729598Y-85400038D02*
X136777217Y-85447657D01*
X136777217Y-85447657D02*
X136824836Y-85542895D01*
X136824836Y-85542895D02*
X136824836Y-85638133D01*
X136824836Y-85638133D02*
X136777217Y-85733371D01*
X136777217Y-85733371D02*
X136729598Y-85780990D01*
X136729598Y-85780990D02*
X136634360Y-85828609D01*
X136634360Y-85828609D02*
X136301027Y-85828609D01*
X137253408Y-86066704D02*
X137729598Y-86066704D01*
X137158170Y-86352419D02*
X137491503Y-85352419D01*
X137491503Y-85352419D02*
X137824836Y-86352419D01*
X138015313Y-85352419D02*
X138586741Y-85352419D01*
X138301027Y-86352419D02*
X138301027Y-85352419D01*
X163118646Y-111492419D02*
X163737693Y-111492419D01*
X163737693Y-111492419D02*
X163404360Y-111873371D01*
X163404360Y-111873371D02*
X163547217Y-111873371D01*
X163547217Y-111873371D02*
X163642455Y-111920990D01*
X163642455Y-111920990D02*
X163690074Y-111968609D01*
X163690074Y-111968609D02*
X163737693Y-112063847D01*
X163737693Y-112063847D02*
X163737693Y-112301942D01*
X163737693Y-112301942D02*
X163690074Y-112397180D01*
X163690074Y-112397180D02*
X163642455Y-112444800D01*
X163642455Y-112444800D02*
X163547217Y-112492419D01*
X163547217Y-112492419D02*
X163261503Y-112492419D01*
X163261503Y-112492419D02*
X163166265Y-112444800D01*
X163166265Y-112444800D02*
X163118646Y-112397180D01*
X164023408Y-111492419D02*
X164356741Y-112492419D01*
X164356741Y-112492419D02*
X164690074Y-111492419D01*
X164928170Y-111492419D02*
X165547217Y-111492419D01*
X165547217Y-111492419D02*
X165213884Y-111873371D01*
X165213884Y-111873371D02*
X165356741Y-111873371D01*
X165356741Y-111873371D02*
X165451979Y-111920990D01*
X165451979Y-111920990D02*
X165499598Y-111968609D01*
X165499598Y-111968609D02*
X165547217Y-112063847D01*
X165547217Y-112063847D02*
X165547217Y-112301942D01*
X165547217Y-112301942D02*
X165499598Y-112397180D01*
X165499598Y-112397180D02*
X165451979Y-112444800D01*
X165451979Y-112444800D02*
X165356741Y-112492419D01*
X165356741Y-112492419D02*
X165071027Y-112492419D01*
X165071027Y-112492419D02*
X164975789Y-112444800D01*
X164975789Y-112444800D02*
X164928170Y-112397180D01*
X136547693Y-105800038D02*
X136452455Y-105752419D01*
X136452455Y-105752419D02*
X136309598Y-105752419D01*
X136309598Y-105752419D02*
X136166741Y-105800038D01*
X136166741Y-105800038D02*
X136071503Y-105895276D01*
X136071503Y-105895276D02*
X136023884Y-105990514D01*
X136023884Y-105990514D02*
X135976265Y-106180990D01*
X135976265Y-106180990D02*
X135976265Y-106323847D01*
X135976265Y-106323847D02*
X136023884Y-106514323D01*
X136023884Y-106514323D02*
X136071503Y-106609561D01*
X136071503Y-106609561D02*
X136166741Y-106704800D01*
X136166741Y-106704800D02*
X136309598Y-106752419D01*
X136309598Y-106752419D02*
X136404836Y-106752419D01*
X136404836Y-106752419D02*
X136547693Y-106704800D01*
X136547693Y-106704800D02*
X136595312Y-106657180D01*
X136595312Y-106657180D02*
X136595312Y-106323847D01*
X136595312Y-106323847D02*
X136404836Y-106323847D01*
X137023884Y-106752419D02*
X137023884Y-105752419D01*
X137023884Y-105752419D02*
X137595312Y-106752419D01*
X137595312Y-106752419D02*
X137595312Y-105752419D01*
X138071503Y-106752419D02*
X138071503Y-105752419D01*
X138071503Y-105752419D02*
X138309598Y-105752419D01*
X138309598Y-105752419D02*
X138452455Y-105800038D01*
X138452455Y-105800038D02*
X138547693Y-105895276D01*
X138547693Y-105895276D02*
X138595312Y-105990514D01*
X138595312Y-105990514D02*
X138642931Y-106180990D01*
X138642931Y-106180990D02*
X138642931Y-106323847D01*
X138642931Y-106323847D02*
X138595312Y-106514323D01*
X138595312Y-106514323D02*
X138547693Y-106609561D01*
X138547693Y-106609561D02*
X138452455Y-106704800D01*
X138452455Y-106704800D02*
X138309598Y-106752419D01*
X138309598Y-106752419D02*
X138071503Y-106752419D01*
D11*
X130343082Y-113829400D02*
X130557368Y-113900828D01*
X130557368Y-113900828D02*
X130914510Y-113900828D01*
X130914510Y-113900828D02*
X131057368Y-113829400D01*
X131057368Y-113829400D02*
X131128796Y-113757971D01*
X131128796Y-113757971D02*
X131200225Y-113615114D01*
X131200225Y-113615114D02*
X131200225Y-113472257D01*
X131200225Y-113472257D02*
X131128796Y-113329400D01*
X131128796Y-113329400D02*
X131057368Y-113257971D01*
X131057368Y-113257971D02*
X130914510Y-113186542D01*
X130914510Y-113186542D02*
X130628796Y-113115114D01*
X130628796Y-113115114D02*
X130485939Y-113043685D01*
X130485939Y-113043685D02*
X130414510Y-112972257D01*
X130414510Y-112972257D02*
X130343082Y-112829400D01*
X130343082Y-112829400D02*
X130343082Y-112686542D01*
X130343082Y-112686542D02*
X130414510Y-112543685D01*
X130414510Y-112543685D02*
X130485939Y-112472257D01*
X130485939Y-112472257D02*
X130628796Y-112400828D01*
X130628796Y-112400828D02*
X130985939Y-112400828D01*
X130985939Y-112400828D02*
X131200225Y-112472257D01*
X131843081Y-113115114D02*
X132343081Y-113115114D01*
X132557367Y-113900828D02*
X131843081Y-113900828D01*
X131843081Y-113900828D02*
X131843081Y-112400828D01*
X131843081Y-112400828D02*
X132557367Y-112400828D01*
X133200224Y-113900828D02*
X133200224Y-112400828D01*
X133200224Y-112400828D02*
X134057367Y-113900828D01*
X134057367Y-113900828D02*
X134057367Y-112400828D01*
X134557368Y-112400828D02*
X135414511Y-112400828D01*
X134985939Y-113900828D02*
X134985939Y-112400828D01*
X135914510Y-113900828D02*
X135914510Y-112400828D01*
X136628796Y-113900828D02*
X136628796Y-112400828D01*
X136628796Y-112400828D02*
X137485939Y-113900828D01*
X137485939Y-113900828D02*
X137485939Y-112400828D01*
X138200225Y-113115114D02*
X138700225Y-113115114D01*
X138914511Y-113900828D02*
X138200225Y-113900828D01*
X138200225Y-113900828D02*
X138200225Y-112400828D01*
X138200225Y-112400828D02*
X138914511Y-112400828D01*
X140271654Y-113900828D02*
X139557368Y-113900828D01*
X139557368Y-113900828D02*
X139557368Y-112400828D01*
X141914511Y-113115114D02*
X142414511Y-113115114D01*
X142628797Y-113900828D02*
X141914511Y-113900828D01*
X141914511Y-113900828D02*
X141914511Y-112400828D01*
X141914511Y-112400828D02*
X142628797Y-112400828D01*
D10*
X181100038Y-95792306D02*
X181052419Y-95887544D01*
X181052419Y-95887544D02*
X181052419Y-96030401D01*
X181052419Y-96030401D02*
X181100038Y-96173258D01*
X181100038Y-96173258D02*
X181195276Y-96268496D01*
X181195276Y-96268496D02*
X181290514Y-96316115D01*
X181290514Y-96316115D02*
X181480990Y-96363734D01*
X181480990Y-96363734D02*
X181623847Y-96363734D01*
X181623847Y-96363734D02*
X181814323Y-96316115D01*
X181814323Y-96316115D02*
X181909561Y-96268496D01*
X181909561Y-96268496D02*
X182004800Y-96173258D01*
X182004800Y-96173258D02*
X182052419Y-96030401D01*
X182052419Y-96030401D02*
X182052419Y-95935163D01*
X182052419Y-95935163D02*
X182004800Y-95792306D01*
X182004800Y-95792306D02*
X181957180Y-95744687D01*
X181957180Y-95744687D02*
X181623847Y-95744687D01*
X181623847Y-95744687D02*
X181623847Y-95935163D01*
X182052419Y-95316115D02*
X181052419Y-95316115D01*
X181052419Y-95316115D02*
X182052419Y-94744687D01*
X182052419Y-94744687D02*
X181052419Y-94744687D01*
X182052419Y-94268496D02*
X181052419Y-94268496D01*
X181052419Y-94268496D02*
X181052419Y-94030401D01*
X181052419Y-94030401D02*
X181100038Y-93887544D01*
X181100038Y-93887544D02*
X181195276Y-93792306D01*
X181195276Y-93792306D02*
X181290514Y-93744687D01*
X181290514Y-93744687D02*
X181480990Y-93697068D01*
X181480990Y-93697068D02*
X181623847Y-93697068D01*
X181623847Y-93697068D02*
X181814323Y-93744687D01*
X181814323Y-93744687D02*
X181909561Y-93792306D01*
X181909561Y-93792306D02*
X182004800Y-93887544D01*
X182004800Y-93887544D02*
X182052419Y-94030401D01*
X182052419Y-94030401D02*
X182052419Y-94268496D01*
X163096265Y-99676704D02*
X163572455Y-99676704D01*
X163001027Y-99962419D02*
X163334360Y-98962419D01*
X163334360Y-98962419D02*
X163667693Y-99962419D01*
X164001027Y-99962419D02*
X164001027Y-98962419D01*
X164001027Y-98962419D02*
X164239122Y-98962419D01*
X164239122Y-98962419D02*
X164381979Y-99010038D01*
X164381979Y-99010038D02*
X164477217Y-99105276D01*
X164477217Y-99105276D02*
X164524836Y-99200514D01*
X164524836Y-99200514D02*
X164572455Y-99390990D01*
X164572455Y-99390990D02*
X164572455Y-99533847D01*
X164572455Y-99533847D02*
X164524836Y-99724323D01*
X164524836Y-99724323D02*
X164477217Y-99819561D01*
X164477217Y-99819561D02*
X164381979Y-99914800D01*
X164381979Y-99914800D02*
X164239122Y-99962419D01*
X164239122Y-99962419D02*
X164001027Y-99962419D01*
X165572455Y-99867180D02*
X165524836Y-99914800D01*
X165524836Y-99914800D02*
X165381979Y-99962419D01*
X165381979Y-99962419D02*
X165286741Y-99962419D01*
X165286741Y-99962419D02*
X165143884Y-99914800D01*
X165143884Y-99914800D02*
X165048646Y-99819561D01*
X165048646Y-99819561D02*
X165001027Y-99724323D01*
X165001027Y-99724323D02*
X164953408Y-99533847D01*
X164953408Y-99533847D02*
X164953408Y-99390990D01*
X164953408Y-99390990D02*
X165001027Y-99200514D01*
X165001027Y-99200514D02*
X165048646Y-99105276D01*
X165048646Y-99105276D02*
X165143884Y-99010038D01*
X165143884Y-99010038D02*
X165286741Y-98962419D01*
X165286741Y-98962419D02*
X165381979Y-98962419D01*
X165381979Y-98962419D02*
X165524836Y-99010038D01*
X165524836Y-99010038D02*
X165572455Y-99057657D01*
X165762932Y-100057657D02*
X166524836Y-100057657D01*
X167334360Y-99867180D02*
X167286741Y-99914800D01*
X167286741Y-99914800D02*
X167143884Y-99962419D01*
X167143884Y-99962419D02*
X167048646Y-99962419D01*
X167048646Y-99962419D02*
X166905789Y-99914800D01*
X166905789Y-99914800D02*
X166810551Y-99819561D01*
X166810551Y-99819561D02*
X166762932Y-99724323D01*
X166762932Y-99724323D02*
X166715313Y-99533847D01*
X166715313Y-99533847D02*
X166715313Y-99390990D01*
X166715313Y-99390990D02*
X166762932Y-99200514D01*
X166762932Y-99200514D02*
X166810551Y-99105276D01*
X166810551Y-99105276D02*
X166905789Y-99010038D01*
X166905789Y-99010038D02*
X167048646Y-98962419D01*
X167048646Y-98962419D02*
X167143884Y-98962419D01*
X167143884Y-98962419D02*
X167286741Y-99010038D01*
X167286741Y-99010038D02*
X167334360Y-99057657D01*
X167762932Y-99962419D02*
X167762932Y-98962419D01*
X167762932Y-99438609D02*
X168334360Y-99438609D01*
X168334360Y-99962419D02*
X168334360Y-98962419D01*
X168762932Y-99057657D02*
X168810551Y-99010038D01*
X168810551Y-99010038D02*
X168905789Y-98962419D01*
X168905789Y-98962419D02*
X169143884Y-98962419D01*
X169143884Y-98962419D02*
X169239122Y-99010038D01*
X169239122Y-99010038D02*
X169286741Y-99057657D01*
X169286741Y-99057657D02*
X169334360Y-99152895D01*
X169334360Y-99152895D02*
X169334360Y-99248133D01*
X169334360Y-99248133D02*
X169286741Y-99390990D01*
X169286741Y-99390990D02*
X168715313Y-99962419D01*
X168715313Y-99962419D02*
X169334360Y-99962419D01*
X122236175Y-80313430D02*
X121236175Y-80646763D01*
X121236175Y-80646763D02*
X122236175Y-80980096D01*
X121759985Y-81646763D02*
X121712366Y-81789620D01*
X121712366Y-81789620D02*
X121664747Y-81837239D01*
X121664747Y-81837239D02*
X121569509Y-81884858D01*
X121569509Y-81884858D02*
X121426652Y-81884858D01*
X121426652Y-81884858D02*
X121331414Y-81837239D01*
X121331414Y-81837239D02*
X121283795Y-81789620D01*
X121283795Y-81789620D02*
X121236175Y-81694382D01*
X121236175Y-81694382D02*
X121236175Y-81313430D01*
X121236175Y-81313430D02*
X122236175Y-81313430D01*
X122236175Y-81313430D02*
X122236175Y-81646763D01*
X122236175Y-81646763D02*
X122188556Y-81742001D01*
X122188556Y-81742001D02*
X122140937Y-81789620D01*
X122140937Y-81789620D02*
X122045699Y-81837239D01*
X122045699Y-81837239D02*
X121950461Y-81837239D01*
X121950461Y-81837239D02*
X121855223Y-81789620D01*
X121855223Y-81789620D02*
X121807604Y-81742001D01*
X121807604Y-81742001D02*
X121759985Y-81646763D01*
X121759985Y-81646763D02*
X121759985Y-81313430D01*
X121521890Y-82265811D02*
X121521890Y-82742001D01*
X121236175Y-82170573D02*
X122236175Y-82503906D01*
X122236175Y-82503906D02*
X121236175Y-82837239D01*
X122236175Y-83027716D02*
X122236175Y-83599144D01*
X121236175Y-83313430D02*
X122236175Y-83313430D01*
X181586760Y-90943734D02*
X181586760Y-90467544D01*
X181872475Y-91038972D02*
X180872475Y-90705639D01*
X180872475Y-90705639D02*
X181872475Y-90372306D01*
X181872475Y-90038972D02*
X180872475Y-90038972D01*
X180872475Y-90038972D02*
X180872475Y-89800877D01*
X180872475Y-89800877D02*
X180920094Y-89658020D01*
X180920094Y-89658020D02*
X181015332Y-89562782D01*
X181015332Y-89562782D02*
X181110570Y-89515163D01*
X181110570Y-89515163D02*
X181301046Y-89467544D01*
X181301046Y-89467544D02*
X181443903Y-89467544D01*
X181443903Y-89467544D02*
X181634379Y-89515163D01*
X181634379Y-89515163D02*
X181729617Y-89562782D01*
X181729617Y-89562782D02*
X181824856Y-89658020D01*
X181824856Y-89658020D02*
X181872475Y-89800877D01*
X181872475Y-89800877D02*
X181872475Y-90038972D01*
X181777236Y-88467544D02*
X181824856Y-88515163D01*
X181824856Y-88515163D02*
X181872475Y-88658020D01*
X181872475Y-88658020D02*
X181872475Y-88753258D01*
X181872475Y-88753258D02*
X181824856Y-88896115D01*
X181824856Y-88896115D02*
X181729617Y-88991353D01*
X181729617Y-88991353D02*
X181634379Y-89038972D01*
X181634379Y-89038972D02*
X181443903Y-89086591D01*
X181443903Y-89086591D02*
X181301046Y-89086591D01*
X181301046Y-89086591D02*
X181110570Y-89038972D01*
X181110570Y-89038972D02*
X181015332Y-88991353D01*
X181015332Y-88991353D02*
X180920094Y-88896115D01*
X180920094Y-88896115D02*
X180872475Y-88753258D01*
X180872475Y-88753258D02*
X180872475Y-88658020D01*
X180872475Y-88658020D02*
X180920094Y-88515163D01*
X180920094Y-88515163D02*
X180967713Y-88467544D01*
X181872475Y-87515163D02*
X181872475Y-88086591D01*
X181872475Y-87800877D02*
X180872475Y-87800877D01*
X180872475Y-87800877D02*
X181015332Y-87896115D01*
X181015332Y-87896115D02*
X181110570Y-87991353D01*
X181110570Y-87991353D02*
X181158189Y-88086591D01*
D12*
X127886666Y-103894819D02*
X127886666Y-104609104D01*
X127886666Y-104609104D02*
X127839047Y-104751961D01*
X127839047Y-104751961D02*
X127743809Y-104847200D01*
X127743809Y-104847200D02*
X127600952Y-104894819D01*
X127600952Y-104894819D02*
X127505714Y-104894819D01*
X128267619Y-103894819D02*
X128886666Y-103894819D01*
X128886666Y-103894819D02*
X128553333Y-104275771D01*
X128553333Y-104275771D02*
X128696190Y-104275771D01*
X128696190Y-104275771D02*
X128791428Y-104323390D01*
X128791428Y-104323390D02*
X128839047Y-104371009D01*
X128839047Y-104371009D02*
X128886666Y-104466247D01*
X128886666Y-104466247D02*
X128886666Y-104704342D01*
X128886666Y-104704342D02*
X128839047Y-104799580D01*
X128839047Y-104799580D02*
X128791428Y-104847200D01*
X128791428Y-104847200D02*
X128696190Y-104894819D01*
X128696190Y-104894819D02*
X128410476Y-104894819D01*
X128410476Y-104894819D02*
X128315238Y-104847200D01*
X128315238Y-104847200D02*
X128267619Y-104799580D01*
X165188095Y-103274819D02*
X165759523Y-103274819D01*
X165473809Y-104274819D02*
X165473809Y-103274819D01*
X166092857Y-104274819D02*
X166092857Y-103274819D01*
X166092857Y-103274819D02*
X166473809Y-103274819D01*
X166473809Y-103274819D02*
X166569047Y-103322438D01*
X166569047Y-103322438D02*
X166616666Y-103370057D01*
X166616666Y-103370057D02*
X166664285Y-103465295D01*
X166664285Y-103465295D02*
X166664285Y-103608152D01*
X166664285Y-103608152D02*
X166616666Y-103703390D01*
X166616666Y-103703390D02*
X166569047Y-103751009D01*
X166569047Y-103751009D02*
X166473809Y-103798628D01*
X166473809Y-103798628D02*
X166092857Y-103798628D01*
X167521428Y-103608152D02*
X167521428Y-104274819D01*
X167283333Y-103227200D02*
X167045238Y-103941485D01*
X167045238Y-103941485D02*
X167664285Y-103941485D01*
X148853333Y-79264819D02*
X148520000Y-78788628D01*
X148281905Y-79264819D02*
X148281905Y-78264819D01*
X148281905Y-78264819D02*
X148662857Y-78264819D01*
X148662857Y-78264819D02*
X148758095Y-78312438D01*
X148758095Y-78312438D02*
X148805714Y-78360057D01*
X148805714Y-78360057D02*
X148853333Y-78455295D01*
X148853333Y-78455295D02*
X148853333Y-78598152D01*
X148853333Y-78598152D02*
X148805714Y-78693390D01*
X148805714Y-78693390D02*
X148758095Y-78741009D01*
X148758095Y-78741009D02*
X148662857Y-78788628D01*
X148662857Y-78788628D02*
X148281905Y-78788628D01*
X149805714Y-79264819D02*
X149234286Y-79264819D01*
X149520000Y-79264819D02*
X149520000Y-78264819D01*
X149520000Y-78264819D02*
X149424762Y-78407676D01*
X149424762Y-78407676D02*
X149329524Y-78502914D01*
X149329524Y-78502914D02*
X149234286Y-78550533D01*
X158890595Y-96204819D02*
X158890595Y-97014342D01*
X158890595Y-97014342D02*
X158938214Y-97109580D01*
X158938214Y-97109580D02*
X158985833Y-97157200D01*
X158985833Y-97157200D02*
X159081071Y-97204819D01*
X159081071Y-97204819D02*
X159271547Y-97204819D01*
X159271547Y-97204819D02*
X159366785Y-97157200D01*
X159366785Y-97157200D02*
X159414404Y-97109580D01*
X159414404Y-97109580D02*
X159462023Y-97014342D01*
X159462023Y-97014342D02*
X159462023Y-96204819D01*
X159842976Y-96204819D02*
X160462023Y-96204819D01*
X160462023Y-96204819D02*
X160128690Y-96585771D01*
X160128690Y-96585771D02*
X160271547Y-96585771D01*
X160271547Y-96585771D02*
X160366785Y-96633390D01*
X160366785Y-96633390D02*
X160414404Y-96681009D01*
X160414404Y-96681009D02*
X160462023Y-96776247D01*
X160462023Y-96776247D02*
X160462023Y-97014342D01*
X160462023Y-97014342D02*
X160414404Y-97109580D01*
X160414404Y-97109580D02*
X160366785Y-97157200D01*
X160366785Y-97157200D02*
X160271547Y-97204819D01*
X160271547Y-97204819D02*
X159985833Y-97204819D01*
X159985833Y-97204819D02*
X159890595Y-97157200D01*
X159890595Y-97157200D02*
X159842976Y-97109580D01*
X147823333Y-94104819D02*
X147490000Y-93628628D01*
X147251905Y-94104819D02*
X147251905Y-93104819D01*
X147251905Y-93104819D02*
X147632857Y-93104819D01*
X147632857Y-93104819D02*
X147728095Y-93152438D01*
X147728095Y-93152438D02*
X147775714Y-93200057D01*
X147775714Y-93200057D02*
X147823333Y-93295295D01*
X147823333Y-93295295D02*
X147823333Y-93438152D01*
X147823333Y-93438152D02*
X147775714Y-93533390D01*
X147775714Y-93533390D02*
X147728095Y-93581009D01*
X147728095Y-93581009D02*
X147632857Y-93628628D01*
X147632857Y-93628628D02*
X147251905Y-93628628D01*
X148680476Y-93104819D02*
X148490000Y-93104819D01*
X148490000Y-93104819D02*
X148394762Y-93152438D01*
X148394762Y-93152438D02*
X148347143Y-93200057D01*
X148347143Y-93200057D02*
X148251905Y-93342914D01*
X148251905Y-93342914D02*
X148204286Y-93533390D01*
X148204286Y-93533390D02*
X148204286Y-93914342D01*
X148204286Y-93914342D02*
X148251905Y-94009580D01*
X148251905Y-94009580D02*
X148299524Y-94057200D01*
X148299524Y-94057200D02*
X148394762Y-94104819D01*
X148394762Y-94104819D02*
X148585238Y-94104819D01*
X148585238Y-94104819D02*
X148680476Y-94057200D01*
X148680476Y-94057200D02*
X148728095Y-94009580D01*
X148728095Y-94009580D02*
X148775714Y-93914342D01*
X148775714Y-93914342D02*
X148775714Y-93676247D01*
X148775714Y-93676247D02*
X148728095Y-93581009D01*
X148728095Y-93581009D02*
X148680476Y-93533390D01*
X148680476Y-93533390D02*
X148585238Y-93485771D01*
X148585238Y-93485771D02*
X148394762Y-93485771D01*
X148394762Y-93485771D02*
X148299524Y-93533390D01*
X148299524Y-93533390D02*
X148251905Y-93581009D01*
X148251905Y-93581009D02*
X148204286Y-93676247D01*
X135608095Y-84044819D02*
X136179523Y-84044819D01*
X135893809Y-85044819D02*
X135893809Y-84044819D01*
X136512857Y-85044819D02*
X136512857Y-84044819D01*
X136512857Y-84044819D02*
X136893809Y-84044819D01*
X136893809Y-84044819D02*
X136989047Y-84092438D01*
X136989047Y-84092438D02*
X137036666Y-84140057D01*
X137036666Y-84140057D02*
X137084285Y-84235295D01*
X137084285Y-84235295D02*
X137084285Y-84378152D01*
X137084285Y-84378152D02*
X137036666Y-84473390D01*
X137036666Y-84473390D02*
X136989047Y-84521009D01*
X136989047Y-84521009D02*
X136893809Y-84568628D01*
X136893809Y-84568628D02*
X136512857Y-84568628D01*
X138036666Y-85044819D02*
X137465238Y-85044819D01*
X137750952Y-85044819D02*
X137750952Y-84044819D01*
X137750952Y-84044819D02*
X137655714Y-84187676D01*
X137655714Y-84187676D02*
X137560476Y-84282914D01*
X137560476Y-84282914D02*
X137465238Y-84330533D01*
X147903333Y-105604819D02*
X147570000Y-105128628D01*
X147331905Y-105604819D02*
X147331905Y-104604819D01*
X147331905Y-104604819D02*
X147712857Y-104604819D01*
X147712857Y-104604819D02*
X147808095Y-104652438D01*
X147808095Y-104652438D02*
X147855714Y-104700057D01*
X147855714Y-104700057D02*
X147903333Y-104795295D01*
X147903333Y-104795295D02*
X147903333Y-104938152D01*
X147903333Y-104938152D02*
X147855714Y-105033390D01*
X147855714Y-105033390D02*
X147808095Y-105081009D01*
X147808095Y-105081009D02*
X147712857Y-105128628D01*
X147712857Y-105128628D02*
X147331905Y-105128628D01*
X148808095Y-104604819D02*
X148331905Y-104604819D01*
X148331905Y-104604819D02*
X148284286Y-105081009D01*
X148284286Y-105081009D02*
X148331905Y-105033390D01*
X148331905Y-105033390D02*
X148427143Y-104985771D01*
X148427143Y-104985771D02*
X148665238Y-104985771D01*
X148665238Y-104985771D02*
X148760476Y-105033390D01*
X148760476Y-105033390D02*
X148808095Y-105081009D01*
X148808095Y-105081009D02*
X148855714Y-105176247D01*
X148855714Y-105176247D02*
X148855714Y-105414342D01*
X148855714Y-105414342D02*
X148808095Y-105509580D01*
X148808095Y-105509580D02*
X148760476Y-105557200D01*
X148760476Y-105557200D02*
X148665238Y-105604819D01*
X148665238Y-105604819D02*
X148427143Y-105604819D01*
X148427143Y-105604819D02*
X148331905Y-105557200D01*
X148331905Y-105557200D02*
X148284286Y-105509580D01*
X162373333Y-81619580D02*
X162325714Y-81667200D01*
X162325714Y-81667200D02*
X162182857Y-81714819D01*
X162182857Y-81714819D02*
X162087619Y-81714819D01*
X162087619Y-81714819D02*
X161944762Y-81667200D01*
X161944762Y-81667200D02*
X161849524Y-81571961D01*
X161849524Y-81571961D02*
X161801905Y-81476723D01*
X161801905Y-81476723D02*
X161754286Y-81286247D01*
X161754286Y-81286247D02*
X161754286Y-81143390D01*
X161754286Y-81143390D02*
X161801905Y-80952914D01*
X161801905Y-80952914D02*
X161849524Y-80857676D01*
X161849524Y-80857676D02*
X161944762Y-80762438D01*
X161944762Y-80762438D02*
X162087619Y-80714819D01*
X162087619Y-80714819D02*
X162182857Y-80714819D01*
X162182857Y-80714819D02*
X162325714Y-80762438D01*
X162325714Y-80762438D02*
X162373333Y-80810057D01*
X163325714Y-81714819D02*
X162754286Y-81714819D01*
X163040000Y-81714819D02*
X163040000Y-80714819D01*
X163040000Y-80714819D02*
X162944762Y-80857676D01*
X162944762Y-80857676D02*
X162849524Y-80952914D01*
X162849524Y-80952914D02*
X162754286Y-81000533D01*
X156678095Y-76774819D02*
X157249523Y-76774819D01*
X156963809Y-77774819D02*
X156963809Y-76774819D01*
X157582857Y-77774819D02*
X157582857Y-76774819D01*
X157582857Y-76774819D02*
X157963809Y-76774819D01*
X157963809Y-76774819D02*
X158059047Y-76822438D01*
X158059047Y-76822438D02*
X158106666Y-76870057D01*
X158106666Y-76870057D02*
X158154285Y-76965295D01*
X158154285Y-76965295D02*
X158154285Y-77108152D01*
X158154285Y-77108152D02*
X158106666Y-77203390D01*
X158106666Y-77203390D02*
X158059047Y-77251009D01*
X158059047Y-77251009D02*
X157963809Y-77298628D01*
X157963809Y-77298628D02*
X157582857Y-77298628D01*
X159059047Y-76774819D02*
X158582857Y-76774819D01*
X158582857Y-76774819D02*
X158535238Y-77251009D01*
X158535238Y-77251009D02*
X158582857Y-77203390D01*
X158582857Y-77203390D02*
X158678095Y-77155771D01*
X158678095Y-77155771D02*
X158916190Y-77155771D01*
X158916190Y-77155771D02*
X159011428Y-77203390D01*
X159011428Y-77203390D02*
X159059047Y-77251009D01*
X159059047Y-77251009D02*
X159106666Y-77346247D01*
X159106666Y-77346247D02*
X159106666Y-77584342D01*
X159106666Y-77584342D02*
X159059047Y-77679580D01*
X159059047Y-77679580D02*
X159011428Y-77727200D01*
X159011428Y-77727200D02*
X158916190Y-77774819D01*
X158916190Y-77774819D02*
X158678095Y-77774819D01*
X158678095Y-77774819D02*
X158582857Y-77727200D01*
X158582857Y-77727200D02*
X158535238Y-77679580D01*
X159703333Y-95619580D02*
X159655714Y-95667200D01*
X159655714Y-95667200D02*
X159512857Y-95714819D01*
X159512857Y-95714819D02*
X159417619Y-95714819D01*
X159417619Y-95714819D02*
X159274762Y-95667200D01*
X159274762Y-95667200D02*
X159179524Y-95571961D01*
X159179524Y-95571961D02*
X159131905Y-95476723D01*
X159131905Y-95476723D02*
X159084286Y-95286247D01*
X159084286Y-95286247D02*
X159084286Y-95143390D01*
X159084286Y-95143390D02*
X159131905Y-94952914D01*
X159131905Y-94952914D02*
X159179524Y-94857676D01*
X159179524Y-94857676D02*
X159274762Y-94762438D01*
X159274762Y-94762438D02*
X159417619Y-94714819D01*
X159417619Y-94714819D02*
X159512857Y-94714819D01*
X159512857Y-94714819D02*
X159655714Y-94762438D01*
X159655714Y-94762438D02*
X159703333Y-94810057D01*
X160560476Y-95048152D02*
X160560476Y-95714819D01*
X160322381Y-94667200D02*
X160084286Y-95381485D01*
X160084286Y-95381485D02*
X160703333Y-95381485D01*
X162799580Y-85716666D02*
X162847200Y-85764285D01*
X162847200Y-85764285D02*
X162894819Y-85907142D01*
X162894819Y-85907142D02*
X162894819Y-86002380D01*
X162894819Y-86002380D02*
X162847200Y-86145237D01*
X162847200Y-86145237D02*
X162751961Y-86240475D01*
X162751961Y-86240475D02*
X162656723Y-86288094D01*
X162656723Y-86288094D02*
X162466247Y-86335713D01*
X162466247Y-86335713D02*
X162323390Y-86335713D01*
X162323390Y-86335713D02*
X162132914Y-86288094D01*
X162132914Y-86288094D02*
X162037676Y-86240475D01*
X162037676Y-86240475D02*
X161942438Y-86145237D01*
X161942438Y-86145237D02*
X161894819Y-86002380D01*
X161894819Y-86002380D02*
X161894819Y-85907142D01*
X161894819Y-85907142D02*
X161942438Y-85764285D01*
X161942438Y-85764285D02*
X161990057Y-85716666D01*
X161990057Y-85335713D02*
X161942438Y-85288094D01*
X161942438Y-85288094D02*
X161894819Y-85192856D01*
X161894819Y-85192856D02*
X161894819Y-84954761D01*
X161894819Y-84954761D02*
X161942438Y-84859523D01*
X161942438Y-84859523D02*
X161990057Y-84811904D01*
X161990057Y-84811904D02*
X162085295Y-84764285D01*
X162085295Y-84764285D02*
X162180533Y-84764285D01*
X162180533Y-84764285D02*
X162323390Y-84811904D01*
X162323390Y-84811904D02*
X162894819Y-85383332D01*
X162894819Y-85383332D02*
X162894819Y-84764285D01*
X145174761Y-90864819D02*
X144841428Y-90388628D01*
X144603333Y-90864819D02*
X144603333Y-89864819D01*
X144603333Y-89864819D02*
X144984285Y-89864819D01*
X144984285Y-89864819D02*
X145079523Y-89912438D01*
X145079523Y-89912438D02*
X145127142Y-89960057D01*
X145127142Y-89960057D02*
X145174761Y-90055295D01*
X145174761Y-90055295D02*
X145174761Y-90198152D01*
X145174761Y-90198152D02*
X145127142Y-90293390D01*
X145127142Y-90293390D02*
X145079523Y-90341009D01*
X145079523Y-90341009D02*
X144984285Y-90388628D01*
X144984285Y-90388628D02*
X144603333Y-90388628D01*
X145365238Y-90960057D02*
X146127142Y-90960057D01*
X146317619Y-90817200D02*
X146412857Y-90864819D01*
X146412857Y-90864819D02*
X146603333Y-90864819D01*
X146603333Y-90864819D02*
X146698571Y-90817200D01*
X146698571Y-90817200D02*
X146746190Y-90721961D01*
X146746190Y-90721961D02*
X146746190Y-90674342D01*
X146746190Y-90674342D02*
X146698571Y-90579104D01*
X146698571Y-90579104D02*
X146603333Y-90531485D01*
X146603333Y-90531485D02*
X146460476Y-90531485D01*
X146460476Y-90531485D02*
X146365238Y-90483866D01*
X146365238Y-90483866D02*
X146317619Y-90388628D01*
X146317619Y-90388628D02*
X146317619Y-90341009D01*
X146317619Y-90341009D02*
X146365238Y-90245771D01*
X146365238Y-90245771D02*
X146460476Y-90198152D01*
X146460476Y-90198152D02*
X146603333Y-90198152D01*
X146603333Y-90198152D02*
X146698571Y-90245771D01*
X147174762Y-90864819D02*
X147174762Y-89864819D01*
X147603333Y-90864819D02*
X147603333Y-90341009D01*
X147603333Y-90341009D02*
X147555714Y-90245771D01*
X147555714Y-90245771D02*
X147460476Y-90198152D01*
X147460476Y-90198152D02*
X147317619Y-90198152D01*
X147317619Y-90198152D02*
X147222381Y-90245771D01*
X147222381Y-90245771D02*
X147174762Y-90293390D01*
X148508095Y-90198152D02*
X148508095Y-90864819D01*
X148079524Y-90198152D02*
X148079524Y-90721961D01*
X148079524Y-90721961D02*
X148127143Y-90817200D01*
X148127143Y-90817200D02*
X148222381Y-90864819D01*
X148222381Y-90864819D02*
X148365238Y-90864819D01*
X148365238Y-90864819D02*
X148460476Y-90817200D01*
X148460476Y-90817200D02*
X148508095Y-90769580D01*
X148984286Y-90198152D02*
X148984286Y-90864819D01*
X148984286Y-90293390D02*
X149031905Y-90245771D01*
X149031905Y-90245771D02*
X149127143Y-90198152D01*
X149127143Y-90198152D02*
X149270000Y-90198152D01*
X149270000Y-90198152D02*
X149365238Y-90245771D01*
X149365238Y-90245771D02*
X149412857Y-90341009D01*
X149412857Y-90341009D02*
X149412857Y-90864819D01*
X149746191Y-90198152D02*
X150127143Y-90198152D01*
X149889048Y-89864819D02*
X149889048Y-90721961D01*
X149889048Y-90721961D02*
X149936667Y-90817200D01*
X149936667Y-90817200D02*
X150031905Y-90864819D01*
X150031905Y-90864819D02*
X150127143Y-90864819D01*
X150984286Y-90864819D02*
X150412858Y-90864819D01*
X150698572Y-90864819D02*
X150698572Y-89864819D01*
X150698572Y-89864819D02*
X150603334Y-90007676D01*
X150603334Y-90007676D02*
X150508096Y-90102914D01*
X150508096Y-90102914D02*
X150412858Y-90150533D01*
X168829819Y-92408333D02*
X169544104Y-92408333D01*
X169544104Y-92408333D02*
X169686961Y-92455952D01*
X169686961Y-92455952D02*
X169782200Y-92551190D01*
X169782200Y-92551190D02*
X169829819Y-92694047D01*
X169829819Y-92694047D02*
X169829819Y-92789285D01*
X169829819Y-91408333D02*
X169829819Y-91979761D01*
X169829819Y-91694047D02*
X168829819Y-91694047D01*
X168829819Y-91694047D02*
X168972676Y-91789285D01*
X168972676Y-91789285D02*
X169067914Y-91884523D01*
X169067914Y-91884523D02*
X169115533Y-91979761D01*
X152098095Y-110054819D02*
X152669523Y-110054819D01*
X152383809Y-111054819D02*
X152383809Y-110054819D01*
X153002857Y-111054819D02*
X153002857Y-110054819D01*
X153002857Y-110054819D02*
X153383809Y-110054819D01*
X153383809Y-110054819D02*
X153479047Y-110102438D01*
X153479047Y-110102438D02*
X153526666Y-110150057D01*
X153526666Y-110150057D02*
X153574285Y-110245295D01*
X153574285Y-110245295D02*
X153574285Y-110388152D01*
X153574285Y-110388152D02*
X153526666Y-110483390D01*
X153526666Y-110483390D02*
X153479047Y-110531009D01*
X153479047Y-110531009D02*
X153383809Y-110578628D01*
X153383809Y-110578628D02*
X153002857Y-110578628D01*
X153907619Y-110054819D02*
X154526666Y-110054819D01*
X154526666Y-110054819D02*
X154193333Y-110435771D01*
X154193333Y-110435771D02*
X154336190Y-110435771D01*
X154336190Y-110435771D02*
X154431428Y-110483390D01*
X154431428Y-110483390D02*
X154479047Y-110531009D01*
X154479047Y-110531009D02*
X154526666Y-110626247D01*
X154526666Y-110626247D02*
X154526666Y-110864342D01*
X154526666Y-110864342D02*
X154479047Y-110959580D01*
X154479047Y-110959580D02*
X154431428Y-111007200D01*
X154431428Y-111007200D02*
X154336190Y-111054819D01*
X154336190Y-111054819D02*
X154050476Y-111054819D01*
X154050476Y-111054819D02*
X153955238Y-111007200D01*
X153955238Y-111007200D02*
X153907619Y-110959580D01*
X135928095Y-104374819D02*
X136499523Y-104374819D01*
X136213809Y-105374819D02*
X136213809Y-104374819D01*
X136832857Y-105374819D02*
X136832857Y-104374819D01*
X136832857Y-104374819D02*
X137213809Y-104374819D01*
X137213809Y-104374819D02*
X137309047Y-104422438D01*
X137309047Y-104422438D02*
X137356666Y-104470057D01*
X137356666Y-104470057D02*
X137404285Y-104565295D01*
X137404285Y-104565295D02*
X137404285Y-104708152D01*
X137404285Y-104708152D02*
X137356666Y-104803390D01*
X137356666Y-104803390D02*
X137309047Y-104851009D01*
X137309047Y-104851009D02*
X137213809Y-104898628D01*
X137213809Y-104898628D02*
X136832857Y-104898628D01*
X138261428Y-104374819D02*
X138070952Y-104374819D01*
X138070952Y-104374819D02*
X137975714Y-104422438D01*
X137975714Y-104422438D02*
X137928095Y-104470057D01*
X137928095Y-104470057D02*
X137832857Y-104612914D01*
X137832857Y-104612914D02*
X137785238Y-104803390D01*
X137785238Y-104803390D02*
X137785238Y-105184342D01*
X137785238Y-105184342D02*
X137832857Y-105279580D01*
X137832857Y-105279580D02*
X137880476Y-105327200D01*
X137880476Y-105327200D02*
X137975714Y-105374819D01*
X137975714Y-105374819D02*
X138166190Y-105374819D01*
X138166190Y-105374819D02*
X138261428Y-105327200D01*
X138261428Y-105327200D02*
X138309047Y-105279580D01*
X138309047Y-105279580D02*
X138356666Y-105184342D01*
X138356666Y-105184342D02*
X138356666Y-104946247D01*
X138356666Y-104946247D02*
X138309047Y-104851009D01*
X138309047Y-104851009D02*
X138261428Y-104803390D01*
X138261428Y-104803390D02*
X138166190Y-104755771D01*
X138166190Y-104755771D02*
X137975714Y-104755771D01*
X137975714Y-104755771D02*
X137880476Y-104803390D01*
X137880476Y-104803390D02*
X137832857Y-104851009D01*
X137832857Y-104851009D02*
X137785238Y-104946247D01*
X163068095Y-110124819D02*
X163639523Y-110124819D01*
X163353809Y-111124819D02*
X163353809Y-110124819D01*
X163972857Y-111124819D02*
X163972857Y-110124819D01*
X163972857Y-110124819D02*
X164353809Y-110124819D01*
X164353809Y-110124819D02*
X164449047Y-110172438D01*
X164449047Y-110172438D02*
X164496666Y-110220057D01*
X164496666Y-110220057D02*
X164544285Y-110315295D01*
X164544285Y-110315295D02*
X164544285Y-110458152D01*
X164544285Y-110458152D02*
X164496666Y-110553390D01*
X164496666Y-110553390D02*
X164449047Y-110601009D01*
X164449047Y-110601009D02*
X164353809Y-110648628D01*
X164353809Y-110648628D02*
X163972857Y-110648628D01*
X164925238Y-110220057D02*
X164972857Y-110172438D01*
X164972857Y-110172438D02*
X165068095Y-110124819D01*
X165068095Y-110124819D02*
X165306190Y-110124819D01*
X165306190Y-110124819D02*
X165401428Y-110172438D01*
X165401428Y-110172438D02*
X165449047Y-110220057D01*
X165449047Y-110220057D02*
X165496666Y-110315295D01*
X165496666Y-110315295D02*
X165496666Y-110410533D01*
X165496666Y-110410533D02*
X165449047Y-110553390D01*
X165449047Y-110553390D02*
X164877619Y-111124819D01*
X164877619Y-111124819D02*
X165496666Y-111124819D01*
X128046666Y-89934819D02*
X128046666Y-90649104D01*
X128046666Y-90649104D02*
X127999047Y-90791961D01*
X127999047Y-90791961D02*
X127903809Y-90887200D01*
X127903809Y-90887200D02*
X127760952Y-90934819D01*
X127760952Y-90934819D02*
X127665714Y-90934819D01*
X128475238Y-90030057D02*
X128522857Y-89982438D01*
X128522857Y-89982438D02*
X128618095Y-89934819D01*
X128618095Y-89934819D02*
X128856190Y-89934819D01*
X128856190Y-89934819D02*
X128951428Y-89982438D01*
X128951428Y-89982438D02*
X128999047Y-90030057D01*
X128999047Y-90030057D02*
X129046666Y-90125295D01*
X129046666Y-90125295D02*
X129046666Y-90220533D01*
X129046666Y-90220533D02*
X128999047Y-90363390D01*
X128999047Y-90363390D02*
X128427619Y-90934819D01*
X128427619Y-90934819D02*
X129046666Y-90934819D01*
D13*
%TO.C,J3*%
X123290000Y-92570000D02*
X123290000Y-93070000D01*
X123530000Y-92810000D02*
X123530000Y-103090000D01*
X124030000Y-92570000D02*
X123290000Y-92570000D01*
X124090000Y-92810000D02*
X124090000Y-103090000D01*
X125590000Y-92810000D02*
X125590000Y-103090000D01*
X126951000Y-99456000D02*
X126916000Y-99421000D01*
X127167000Y-99263000D02*
X127121000Y-99216000D01*
X129259000Y-101765000D02*
X129213000Y-101718000D01*
X129465000Y-101560000D02*
X129429000Y-101525000D01*
X130491000Y-92810000D02*
X130491000Y-103090000D01*
X133451000Y-92810000D02*
X123530000Y-92810000D01*
X133451000Y-92810000D02*
X133451000Y-103090000D01*
X133451000Y-103090000D02*
X123530000Y-103090000D01*
X126509748Y-95438805D02*
G75*
G02*
X126655001Y-94726000I1680253J28806D01*
G01*
X126655245Y-96093318D02*
G75*
G02*
X126510001Y-95410000I1534755J683318D01*
G01*
X127506958Y-93874574D02*
G75*
G02*
X128873999Y-93875001I683041J-1535419D01*
G01*
X128873042Y-96945426D02*
G75*
G02*
X127506000Y-96945000I-683042J1535426D01*
G01*
X129725426Y-94726958D02*
G75*
G02*
X129724999Y-96093999I-1535419J-683041D01*
G01*
X129870000Y-100490000D02*
G75*
G02*
X126510000Y-100490000I-1680000J0D01*
G01*
X126510000Y-100490000D02*
G75*
G02*
X129870000Y-100490000I1680000J0D01*
G01*
%TO.C,TP4*%
X164940000Y-100450000D02*
X164940000Y-102150000D01*
X164940000Y-102150000D02*
X164940000Y-102650000D01*
X164940000Y-102650000D02*
X167540000Y-102650000D01*
X167540000Y-100450000D02*
X164940000Y-100450000D01*
X167540000Y-102650000D02*
X167540000Y-100450000D01*
%TO.C,R1*%
X144980000Y-81180000D02*
X145750000Y-81180000D01*
X145750000Y-79810000D02*
X145750000Y-82550000D01*
X145750000Y-82550000D02*
X152290000Y-82550000D01*
X152290000Y-79810000D02*
X145750000Y-79810000D01*
X152290000Y-82550000D02*
X152290000Y-79810000D01*
X153060000Y-81180000D02*
X152290000Y-81180000D01*
%TO.C,U3*%
X159652500Y-97590000D02*
X158852500Y-97590000D01*
X159652500Y-97590000D02*
X160452500Y-97590000D01*
X159652500Y-100710000D02*
X158852500Y-100710000D01*
X159652500Y-100710000D02*
X160452500Y-100710000D01*
X158352500Y-97640000D02*
X158112500Y-97310000D01*
X158592500Y-97310000D01*
X158352500Y-97640000D01*
G36*
X158352500Y-97640000D02*
G01*
X158112500Y-97310000D01*
X158592500Y-97310000D01*
X158352500Y-97640000D01*
G37*
%TO.C,R6*%
X143950000Y-96020000D02*
X144720000Y-96020000D01*
X144720000Y-94650000D02*
X144720000Y-97390000D01*
X144720000Y-97390000D02*
X151260000Y-97390000D01*
X151260000Y-94650000D02*
X144720000Y-94650000D01*
X151260000Y-97390000D02*
X151260000Y-94650000D01*
X152030000Y-96020000D02*
X151260000Y-96020000D01*
%TO.C,TP1*%
X135490000Y-81150000D02*
X135490000Y-82850000D01*
X135490000Y-82850000D02*
X135490000Y-83350000D01*
X135490000Y-83350000D02*
X138090000Y-83350000D01*
X138090000Y-81150000D02*
X135490000Y-81150000D01*
X138090000Y-83350000D02*
X138090000Y-81150000D01*
%TO.C,R5*%
X144030000Y-102780000D02*
X144800000Y-102780000D01*
X144800000Y-101410000D02*
X144800000Y-104150000D01*
X144800000Y-104150000D02*
X151340000Y-104150000D01*
X151340000Y-101410000D02*
X144800000Y-101410000D01*
X151340000Y-104150000D02*
X151340000Y-101410000D01*
X152110000Y-102780000D02*
X151340000Y-102780000D01*
%TO.C,C1*%
X158571000Y-80260000D02*
X159829000Y-80260000D01*
X158571000Y-82100000D02*
X159829000Y-82100000D01*
%TO.C,TP5*%
X156410000Y-74210000D02*
X156410000Y-75910000D01*
X156410000Y-75910000D02*
X156410000Y-76410000D01*
X156410000Y-76410000D02*
X159010000Y-76410000D01*
X159010000Y-74210000D02*
X156410000Y-74210000D01*
X159010000Y-76410000D02*
X159010000Y-74210000D01*
%TO.C,U1*%
X159407500Y-85480000D02*
X158607500Y-85480000D01*
X159407500Y-85480000D02*
X160207500Y-85480000D01*
X159407500Y-88600000D02*
X158607500Y-88600000D01*
X159407500Y-88600000D02*
X160207500Y-88600000D01*
X158107500Y-85530000D02*
X157867500Y-85200000D01*
X158347500Y-85200000D01*
X158107500Y-85530000D01*
G36*
X158107500Y-85530000D02*
G01*
X157867500Y-85200000D01*
X158347500Y-85200000D01*
X158107500Y-85530000D01*
G37*
%TO.C,C4*%
X160499000Y-92290000D02*
X159241000Y-92290000D01*
X160499000Y-94130000D02*
X159241000Y-94130000D01*
%TO.C,C2*%
X163570000Y-86179000D02*
X163570000Y-84921000D01*
X165410000Y-86179000D02*
X165410000Y-84921000D01*
%TO.C,R_shunt1*%
X142700000Y-85570000D02*
X142700000Y-86050000D01*
X142700000Y-89410000D02*
X142700000Y-88930000D01*
X152840000Y-85570000D02*
X142700000Y-85570000D01*
X152840000Y-86050000D02*
X152840000Y-85570000D01*
X152840000Y-88930000D02*
X152840000Y-89410000D01*
X152840000Y-89410000D02*
X142700000Y-89410000D01*
%TO.C,J1*%
X170374000Y-81855000D02*
X180295000Y-81855000D01*
X170374000Y-102295000D02*
X170374000Y-81855000D01*
X170374000Y-102295000D02*
X180295000Y-102295000D01*
X173334000Y-102295000D02*
X173334000Y-81855000D01*
X174360000Y-83385000D02*
X174396000Y-83420000D01*
X174360000Y-88465000D02*
X174396000Y-88500000D01*
X174360000Y-93545000D02*
X174396000Y-93580000D01*
X174566000Y-83180000D02*
X174612000Y-83227000D01*
X174566000Y-88260000D02*
X174612000Y-88307000D01*
X174566000Y-93340000D02*
X174612000Y-93387000D01*
X176658000Y-85682000D02*
X176704000Y-85729000D01*
X176658000Y-90762000D02*
X176704000Y-90809000D01*
X176658000Y-95842000D02*
X176704000Y-95889000D01*
X176874000Y-85489000D02*
X176909000Y-85524000D01*
X176874000Y-90569000D02*
X176909000Y-90604000D01*
X176874000Y-95649000D02*
X176909000Y-95684000D01*
X178235000Y-102295000D02*
X178235000Y-81855000D01*
X179735000Y-102295000D02*
X179735000Y-81855000D01*
X179795000Y-102535000D02*
X180535000Y-102535000D01*
X180295000Y-102295000D02*
X180295000Y-81855000D01*
X180535000Y-102535000D02*
X180535000Y-102035000D01*
X174099574Y-100378042D02*
G75*
G02*
X174100001Y-99011001I1535419J683041D01*
G01*
X174951958Y-98159574D02*
G75*
G02*
X176319000Y-98160000I683042J-1535426D01*
G01*
X176318042Y-101230426D02*
G75*
G02*
X174951001Y-101229999I-683041J1535419D01*
G01*
X177169755Y-99011682D02*
G75*
G02*
X177314999Y-99695000I-1534755J-683318D01*
G01*
X177315252Y-99666195D02*
G75*
G02*
X177169999Y-100379000I-1680253J-28806D01*
G01*
X177315000Y-84455000D02*
G75*
G02*
X173955000Y-84455000I-1680000J0D01*
G01*
X173955000Y-84455000D02*
G75*
G02*
X177315000Y-84455000I1680000J0D01*
G01*
X177315000Y-89535000D02*
G75*
G02*
X173955000Y-89535000I-1680000J0D01*
G01*
X173955000Y-89535000D02*
G75*
G02*
X177315000Y-89535000I1680000J0D01*
G01*
X177315000Y-94615000D02*
G75*
G02*
X173955000Y-94615000I-1680000J0D01*
G01*
X173955000Y-94615000D02*
G75*
G02*
X177315000Y-94615000I1680000J0D01*
G01*
%TO.C,TP3*%
X152290000Y-106770000D02*
X152290000Y-108470000D01*
X152290000Y-108470000D02*
X152290000Y-108970000D01*
X152290000Y-108970000D02*
X154890000Y-108970000D01*
X154890000Y-106770000D02*
X152290000Y-106770000D01*
X154890000Y-108970000D02*
X154890000Y-106770000D01*
%TO.C,TP6*%
X136020000Y-101000000D02*
X136020000Y-102700000D01*
X136020000Y-102700000D02*
X136020000Y-103200000D01*
X136020000Y-103200000D02*
X138620000Y-103200000D01*
X138620000Y-101000000D02*
X136020000Y-101000000D01*
X138620000Y-103200000D02*
X138620000Y-101000000D01*
%TO.C,TP2*%
X162960000Y-107270000D02*
X162960000Y-108970000D01*
X162960000Y-108970000D02*
X162960000Y-109470000D01*
X162960000Y-109470000D02*
X165560000Y-109470000D01*
X165560000Y-107270000D02*
X162960000Y-107270000D01*
X165560000Y-109470000D02*
X165560000Y-107270000D01*
%TO.C,J2*%
X123305000Y-78795000D02*
X123305000Y-79295000D01*
X123545000Y-79035000D02*
X123545000Y-89315000D01*
X124045000Y-78795000D02*
X123305000Y-78795000D01*
X124105000Y-79035000D02*
X124105000Y-89315000D01*
X125605000Y-79035000D02*
X125605000Y-89315000D01*
X126966000Y-85681000D02*
X126931000Y-85646000D01*
X127182000Y-85488000D02*
X127136000Y-85441000D01*
X129274000Y-87990000D02*
X129228000Y-87943000D01*
X129480000Y-87785000D02*
X129444000Y-87750000D01*
X130506000Y-79035000D02*
X130506000Y-89315000D01*
X133466000Y-79035000D02*
X123545000Y-79035000D01*
X133466000Y-79035000D02*
X133466000Y-89315000D01*
X133466000Y-89315000D02*
X123545000Y-89315000D01*
X126524748Y-81663805D02*
G75*
G02*
X126670001Y-80951000I1680253J28806D01*
G01*
X126670245Y-82318318D02*
G75*
G02*
X126525001Y-81635000I1534755J683318D01*
G01*
X127521958Y-80099574D02*
G75*
G02*
X128888999Y-80100001I683041J-1535419D01*
G01*
X128888042Y-83170426D02*
G75*
G02*
X127521000Y-83170000I-683042J1535426D01*
G01*
X129740426Y-80951958D02*
G75*
G02*
X129739999Y-82318999I-1535419J-683041D01*
G01*
X129885000Y-86715000D02*
G75*
G02*
X126525000Y-86715000I-1680000J0D01*
G01*
X126525000Y-86715000D02*
G75*
G02*
X129885000Y-86715000I1680000J0D01*
G01*
%TD*%
M02*
