%TF.GenerationSoftware,KiCad,Pcbnew,8.0.0*%
%TF.CreationDate,2026-04-06T11:17:12+02:00*%
%TF.ProjectId,pcb_1,7063625f-312e-46b6-9963-61645f706362,rev?*%
%TF.SameCoordinates,Original*%
%TF.FileFunction,Copper,L2,Bot*%
%TF.FilePolarity,Positive*%
%FSLAX46Y46*%
G04 Gerber Fmt 4.6, Leading zero omitted, Abs format (unit mm)*
G04 Created by KiCad (PCBNEW 8.0.0) date 2026-04-06 11:17:12*
%MOMM*%
%LPD*%
G01*
G04 APERTURE LIST*
%TA.AperFunction,ComponentPad*%
%ADD10R,2.600000X2.600000*%
%TD*%
%TA.AperFunction,ComponentPad*%
%ADD11C,2.600000*%
%TD*%
%TA.AperFunction,ComponentPad*%
%ADD12C,1.800000*%
%TD*%
%TA.AperFunction,ComponentPad*%
%ADD13C,1.600000*%
%TD*%
%TA.AperFunction,ComponentPad*%
%ADD14O,1.600000X1.600000*%
%TD*%
%TA.AperFunction,ComponentPad*%
%ADD15C,2.400000*%
%TD*%
%TA.AperFunction,ComponentPad*%
%ADD16O,2.400000X2.400000*%
%TD*%
%TA.AperFunction,Conductor*%
%ADD17C,0.200000*%
%TD*%
%TA.AperFunction,Conductor*%
%ADD18C,0.800000*%
%TD*%
%TA.AperFunction,Conductor*%
%ADD19C,0.400000*%
%TD*%
G04 APERTURE END LIST*
D10*
%TO.P,J3,1,Pin_1*%
%TO.N,Net-(J3-Pin_1)*%
X128190000Y-95410000D03*
D11*
%TO.P,J3,2,Pin_2*%
%TO.N,GND*%
X128190000Y-100490000D03*
%TD*%
D12*
%TO.P,TP4,1,1*%
%TO.N,/ADC_CH2*%
X166240000Y-101550000D03*
%TD*%
D13*
%TO.P,R1,1*%
%TO.N,Net-(R1-Pad1)*%
X143940000Y-81180000D03*
D14*
%TO.P,R1,2*%
%TO.N,/ADC_CH1*%
X154100000Y-81180000D03*
%TD*%
D13*
%TO.P,R6,1*%
%TO.N,GND*%
X142910000Y-96020000D03*
D14*
%TO.P,R6,2*%
%TO.N,Net-(U3-+)*%
X153070000Y-96020000D03*
%TD*%
D12*
%TO.P,TP1,1,1*%
%TO.N,VBAT+*%
X136790000Y-82250000D03*
%TD*%
D13*
%TO.P,R5,1*%
%TO.N,Net-(U3-+)*%
X153150000Y-102780000D03*
D14*
%TO.P,R5,2*%
%TO.N,VBAT+*%
X142990000Y-102780000D03*
%TD*%
D13*
%TO.P,C1,1*%
%TO.N,/ADC_CH1*%
X157950000Y-81180000D03*
%TO.P,C1,2*%
%TO.N,GND*%
X160450000Y-81180000D03*
%TD*%
D12*
%TO.P,TP5,1,1*%
%TO.N,Net-(R1-Pad1)*%
X157710000Y-75310000D03*
%TD*%
D13*
%TO.P,C4,1*%
%TO.N,+3V3*%
X161120000Y-93210000D03*
%TO.P,C4,2*%
%TO.N,GND*%
X158620000Y-93210000D03*
%TD*%
%TO.P,C2,1*%
%TO.N,+3V3*%
X164490000Y-86800000D03*
%TO.P,C2,2*%
%TO.N,GND*%
X164490000Y-84300000D03*
%TD*%
D15*
%TO.P,R_shunt1,1*%
%TO.N,Net-(J3-Pin_1)*%
X154120000Y-87490000D03*
D16*
%TO.P,R_shunt1,2*%
%TO.N,VBAT+*%
X141420000Y-87490000D03*
%TD*%
D10*
%TO.P,J1,1,Pin_1*%
%TO.N,+3V3*%
X175635000Y-99695000D03*
D11*
%TO.P,J1,2,Pin_2*%
%TO.N,GND*%
X175635000Y-94615000D03*
%TO.P,J1,3,Pin_3*%
%TO.N,/ADC_CH1*%
X175635000Y-89535000D03*
%TO.P,J1,4,Pin_4*%
%TO.N,/ADC_CH2*%
X175635000Y-84455000D03*
%TD*%
D12*
%TO.P,TP3,1,1*%
%TO.N,Net-(U3-+)*%
X153590000Y-107870000D03*
%TD*%
%TO.P,TP6,1,1*%
%TO.N,GND*%
X137320000Y-102100000D03*
%TD*%
%TO.P,TP2,1,1*%
%TO.N,+3V3*%
X164260000Y-108370000D03*
%TD*%
D10*
%TO.P,J2,1,Pin_1*%
%TO.N,VBAT+*%
X128205000Y-81635000D03*
D11*
%TO.P,J2,2,Pin_2*%
%TO.N,GND*%
X128205000Y-86715000D03*
%TD*%
D17*
%TO.N,GND*%
X142190000Y-96020000D02*
X142910000Y-96020000D01*
D18*
%TO.N,+3V3*%
X161120000Y-91780000D02*
X164490000Y-88410000D01*
X164260000Y-108370000D02*
X161120000Y-105230000D01*
X161120000Y-105230000D02*
X161120000Y-93210000D01*
X161120000Y-93210000D02*
X161120000Y-91780000D01*
X164490000Y-88410000D02*
X164490000Y-86800000D01*
D17*
%TO.N,Net-(U3-+)*%
X153590000Y-107870000D02*
X153150000Y-107430000D01*
X153150000Y-97201700D02*
X153150000Y-102780000D01*
X153070000Y-96020000D02*
X153070000Y-97121700D01*
X153150000Y-107430000D02*
X153150000Y-102780000D01*
X153070000Y-97121700D02*
X153150000Y-97201700D01*
%TO.N,/ADC_CH2*%
X175635000Y-84455000D02*
X173015000Y-84455000D01*
X166240000Y-91230000D02*
X166240000Y-101550000D01*
X173015000Y-84455000D02*
X166240000Y-91230000D01*
D19*
%TO.N,VBAT+*%
X128520000Y-104910000D02*
X124590000Y-100980000D01*
X124590000Y-85250000D02*
X128205000Y-81635000D01*
X140860000Y-104910000D02*
X128520000Y-104910000D01*
D18*
X138700000Y-82250000D02*
X136790000Y-82250000D01*
D19*
X142990000Y-102780000D02*
X140860000Y-104910000D01*
D18*
X141420000Y-87490000D02*
X141420000Y-84970000D01*
D19*
X124590000Y-100980000D02*
X124590000Y-85250000D01*
D18*
X141420000Y-84970000D02*
X138700000Y-82250000D01*
%TD*%
%TA.AperFunction,Conductor*%
%TO.N,GND*%
G36*
X181972539Y-70300185D02*
G01*
X182018294Y-70352989D01*
X182029500Y-70404500D01*
X182029500Y-114995500D01*
X182009815Y-115062539D01*
X181957011Y-115108294D01*
X181905500Y-115119500D01*
X120364500Y-115119500D01*
X120297461Y-115099815D01*
X120251706Y-115047011D01*
X120240500Y-114995500D01*
X120240500Y-111961288D01*
X121989500Y-111961288D01*
X122021161Y-112201785D01*
X122083947Y-112436104D01*
X122089788Y-112450205D01*
X122176776Y-112660212D01*
X122298064Y-112870289D01*
X122298066Y-112870292D01*
X122298067Y-112870293D01*
X122445733Y-113062736D01*
X122445739Y-113062743D01*
X122617256Y-113234260D01*
X122617262Y-113234265D01*
X122809711Y-113381936D01*
X123019788Y-113503224D01*
X123243900Y-113596054D01*
X123478211Y-113658838D01*
X123658586Y-113682584D01*
X123718711Y-113690500D01*
X123718712Y-113690500D01*
X123961289Y-113690500D01*
X124009388Y-113684167D01*
X124201789Y-113658838D01*
X124436100Y-113596054D01*
X124660212Y-113503224D01*
X124870289Y-113381936D01*
X125062738Y-113234265D01*
X125234265Y-113062738D01*
X125381936Y-112870289D01*
X125503224Y-112660212D01*
X125596054Y-112436100D01*
X125658838Y-112201789D01*
X125690500Y-111961288D01*
X125690500Y-111751288D01*
X176349500Y-111751288D01*
X176381161Y-111991785D01*
X176443947Y-112226104D01*
X176530932Y-112436104D01*
X176536776Y-112450212D01*
X176658064Y-112660289D01*
X176658066Y-112660292D01*
X176658067Y-112660293D01*
X176805733Y-112852736D01*
X176805739Y-112852743D01*
X176977256Y-113024260D01*
X176977263Y-113024266D01*
X177090321Y-113111018D01*
X177169711Y-113171936D01*
X177379788Y-113293224D01*
X177575269Y-113374195D01*
X177593948Y-113381932D01*
X177603900Y-113386054D01*
X177838211Y-113448838D01*
X178018586Y-113472584D01*
X178078711Y-113480500D01*
X178078712Y-113480500D01*
X178321289Y-113480500D01*
X178369388Y-113474167D01*
X178561789Y-113448838D01*
X178796100Y-113386054D01*
X179020212Y-113293224D01*
X179230289Y-113171936D01*
X179422738Y-113024265D01*
X179594265Y-112852738D01*
X179741936Y-112660289D01*
X179863224Y-112450212D01*
X179956054Y-112226100D01*
X180018838Y-111991789D01*
X180050500Y-111751288D01*
X180050500Y-111508712D01*
X180018838Y-111268211D01*
X179956054Y-111033900D01*
X179863224Y-110809788D01*
X179741936Y-110599711D01*
X179681018Y-110520321D01*
X179594266Y-110407263D01*
X179594260Y-110407256D01*
X179422743Y-110235739D01*
X179422736Y-110235733D01*
X179230293Y-110088067D01*
X179230292Y-110088066D01*
X179230289Y-110088064D01*
X179020212Y-109966776D01*
X179020205Y-109966773D01*
X178796104Y-109873947D01*
X178561785Y-109811161D01*
X178321289Y-109779500D01*
X178321288Y-109779500D01*
X178078712Y-109779500D01*
X178078711Y-109779500D01*
X177838214Y-109811161D01*
X177603895Y-109873947D01*
X177379794Y-109966773D01*
X177379785Y-109966777D01*
X177169706Y-110088067D01*
X176977263Y-110235733D01*
X176977256Y-110235739D01*
X176805739Y-110407256D01*
X176805733Y-110407263D01*
X176658067Y-110599706D01*
X176536777Y-110809785D01*
X176536773Y-110809794D01*
X176443947Y-111033895D01*
X176381161Y-111268214D01*
X176349500Y-111508711D01*
X176349500Y-111751288D01*
X125690500Y-111751288D01*
X125690500Y-111718712D01*
X125658838Y-111478211D01*
X125596054Y-111243900D01*
X125503224Y-111019788D01*
X125381936Y-110809711D01*
X125234265Y-110617262D01*
X125234260Y-110617256D01*
X125062743Y-110445739D01*
X125062736Y-110445733D01*
X124870293Y-110298067D01*
X124870292Y-110298066D01*
X124870289Y-110298064D01*
X124660212Y-110176776D01*
X124660205Y-110176773D01*
X124436104Y-110083947D01*
X124201785Y-110021161D01*
X123961289Y-109989500D01*
X123961288Y-109989500D01*
X123718712Y-109989500D01*
X123718711Y-109989500D01*
X123478214Y-110021161D01*
X123243895Y-110083947D01*
X123019794Y-110176773D01*
X123019785Y-110176777D01*
X122809706Y-110298067D01*
X122617263Y-110445733D01*
X122617256Y-110445739D01*
X122445739Y-110617256D01*
X122445733Y-110617263D01*
X122298067Y-110809706D01*
X122176777Y-111019785D01*
X122176773Y-111019794D01*
X122083947Y-111243895D01*
X122021161Y-111478214D01*
X121989500Y-111718711D01*
X121989500Y-111961288D01*
X120240500Y-111961288D01*
X120240500Y-101048996D01*
X123889499Y-101048996D01*
X123916418Y-101184322D01*
X123916421Y-101184332D01*
X123969222Y-101311807D01*
X124045887Y-101426545D01*
X124045888Y-101426546D01*
X126081154Y-103461811D01*
X128073457Y-105454114D01*
X128119409Y-105484817D01*
X128119411Y-105484819D01*
X128119412Y-105484819D01*
X128188189Y-105530775D01*
X128278332Y-105568113D01*
X128315671Y-105583580D01*
X128342591Y-105588934D01*
X128432937Y-105606905D01*
X128451006Y-105610500D01*
X128451007Y-105610500D01*
X140928996Y-105610500D01*
X141037432Y-105588930D01*
X141064328Y-105583580D01*
X141128069Y-105557177D01*
X141191807Y-105530777D01*
X141191808Y-105530776D01*
X141191811Y-105530775D01*
X141306543Y-105454114D01*
X142659630Y-104101025D01*
X142720951Y-104067542D01*
X142758117Y-104065180D01*
X142763303Y-104065633D01*
X142763308Y-104065635D01*
X142968263Y-104083566D01*
X142989999Y-104085468D01*
X142990000Y-104085468D01*
X142990002Y-104085468D01*
X143046673Y-104080509D01*
X143216692Y-104065635D01*
X143436496Y-104006739D01*
X143642734Y-103910568D01*
X143829139Y-103780047D01*
X143990047Y-103619139D01*
X144120568Y-103432734D01*
X144216739Y-103226496D01*
X144275635Y-103006692D01*
X144295468Y-102780000D01*
X144275635Y-102553308D01*
X144216739Y-102333504D01*
X144120568Y-102127266D01*
X143990047Y-101940861D01*
X143990045Y-101940858D01*
X143829141Y-101779954D01*
X143642734Y-101649432D01*
X143642732Y-101649431D01*
X143436497Y-101553261D01*
X143436488Y-101553258D01*
X143216697Y-101494366D01*
X143216693Y-101494365D01*
X143216692Y-101494365D01*
X143216691Y-101494364D01*
X143216686Y-101494364D01*
X142990002Y-101474532D01*
X142989998Y-101474532D01*
X142763313Y-101494364D01*
X142763302Y-101494366D01*
X142543511Y-101553258D01*
X142543502Y-101553261D01*
X142337267Y-101649431D01*
X142337265Y-101649432D01*
X142150858Y-101779954D01*
X141989954Y-101940858D01*
X141859432Y-102127265D01*
X141859431Y-102127267D01*
X141763261Y-102333502D01*
X141763258Y-102333511D01*
X141704366Y-102553302D01*
X141704364Y-102553313D01*
X141684532Y-102779998D01*
X141684532Y-102780001D01*
X141704819Y-103011881D01*
X141691052Y-103080381D01*
X141668972Y-103110369D01*
X140606162Y-104173181D01*
X140544839Y-104206666D01*
X140518481Y-104209500D01*
X128861519Y-104209500D01*
X128794480Y-104189815D01*
X128773838Y-104173181D01*
X125326819Y-100726162D01*
X125293334Y-100664839D01*
X125290500Y-100638481D01*
X125290500Y-100490004D01*
X126384953Y-100490004D01*
X126405113Y-100759026D01*
X126405113Y-100759028D01*
X126465142Y-101022033D01*
X126465148Y-101022052D01*
X126563709Y-101273181D01*
X126563708Y-101273181D01*
X126698602Y-101506822D01*
X126752294Y-101574151D01*
X126752295Y-101574151D01*
X127588958Y-100737488D01*
X127613978Y-100797890D01*
X127685112Y-100904351D01*
X127775649Y-100994888D01*
X127882110Y-101066022D01*
X127942510Y-101091041D01*
X127104848Y-101928702D01*
X127287483Y-102053220D01*
X127287485Y-102053221D01*
X127530539Y-102170269D01*
X127530537Y-102170269D01*
X127788337Y-102249790D01*
X127788343Y-102249792D01*
X128055101Y-102289999D01*
X128055110Y-102290000D01*
X128324890Y-102290000D01*
X128324898Y-102289999D01*
X128591656Y-102249792D01*
X128591662Y-102249790D01*
X128849461Y-102170269D01*
X128995366Y-102100005D01*
X135915202Y-102100005D01*
X135934361Y-102331218D01*
X135991317Y-102556135D01*
X136084515Y-102768606D01*
X136168812Y-102897633D01*
X136877861Y-102188584D01*
X136900667Y-102273694D01*
X136959910Y-102376306D01*
X137043694Y-102460090D01*
X137146306Y-102519333D01*
X137231414Y-102542138D01*
X136521201Y-103252351D01*
X136551649Y-103276050D01*
X136755697Y-103386476D01*
X136755706Y-103386479D01*
X136975139Y-103461811D01*
X137203993Y-103500000D01*
X137436007Y-103500000D01*
X137664860Y-103461811D01*
X137884293Y-103386479D01*
X137884301Y-103386476D01*
X138088355Y-103276047D01*
X138118797Y-103252351D01*
X138118798Y-103252350D01*
X137408585Y-102542137D01*
X137493694Y-102519333D01*
X137596306Y-102460090D01*
X137680090Y-102376306D01*
X137739333Y-102273694D01*
X137762138Y-102188585D01*
X138471186Y-102897633D01*
X138555482Y-102768611D01*
X138648682Y-102556135D01*
X138705638Y-102331218D01*
X138724798Y-102100005D01*
X138724798Y-102099994D01*
X138705638Y-101868781D01*
X138648682Y-101643864D01*
X138555484Y-101431393D01*
X138471186Y-101302365D01*
X137762137Y-102011414D01*
X137739333Y-101926306D01*
X137680090Y-101823694D01*
X137596306Y-101739910D01*
X137493694Y-101680667D01*
X137408584Y-101657861D01*
X138118797Y-100947647D01*
X138118797Y-100947645D01*
X138088360Y-100923955D01*
X138088354Y-100923951D01*
X137884302Y-100813523D01*
X137884293Y-100813520D01*
X137664860Y-100738188D01*
X137436007Y-100700000D01*
X137203993Y-100700000D01*
X136975139Y-100738188D01*
X136755706Y-100813520D01*
X136755697Y-100813523D01*
X136551650Y-100923949D01*
X136521200Y-100947647D01*
X137231415Y-101657861D01*
X137146306Y-101680667D01*
X137043694Y-101739910D01*
X136959910Y-101823694D01*
X136900667Y-101926306D01*
X136877861Y-102011415D01*
X136168811Y-101302365D01*
X136084516Y-101431390D01*
X135991317Y-101643864D01*
X135934361Y-101868781D01*
X135915202Y-102099994D01*
X135915202Y-102100005D01*
X128995366Y-102100005D01*
X129092521Y-102053218D01*
X129275150Y-101928702D01*
X128437488Y-101091041D01*
X128497890Y-101066022D01*
X128604351Y-100994888D01*
X128694888Y-100904351D01*
X128766022Y-100797890D01*
X128791041Y-100737488D01*
X129627703Y-101574151D01*
X129627704Y-101574150D01*
X129681393Y-101506828D01*
X129681400Y-101506817D01*
X129816290Y-101273181D01*
X129914851Y-101022052D01*
X129914857Y-101022033D01*
X129974886Y-100759028D01*
X129974886Y-100759026D01*
X129995047Y-100490004D01*
X129995047Y-100489995D01*
X129974886Y-100220973D01*
X129974886Y-100220971D01*
X129914857Y-99957966D01*
X129914851Y-99957947D01*
X129816290Y-99706818D01*
X129816291Y-99706818D01*
X129681397Y-99473177D01*
X129627704Y-99405847D01*
X128791041Y-100242510D01*
X128766022Y-100182110D01*
X128694888Y-100075649D01*
X128604351Y-99985112D01*
X128497890Y-99913978D01*
X128437488Y-99888958D01*
X129275150Y-99051296D01*
X129092517Y-98926779D01*
X129092516Y-98926778D01*
X128849460Y-98809730D01*
X128849462Y-98809730D01*
X128591662Y-98730209D01*
X128591656Y-98730207D01*
X128324898Y-98690000D01*
X128055101Y-98690000D01*
X127788343Y-98730207D01*
X127788337Y-98730209D01*
X127530538Y-98809730D01*
X127287485Y-98926778D01*
X127287476Y-98926783D01*
X127104848Y-99051296D01*
X127942511Y-99888958D01*
X127882110Y-99913978D01*
X127775649Y-99985112D01*
X127685112Y-100075649D01*
X127613978Y-100182110D01*
X127588958Y-100242511D01*
X126752295Y-99405848D01*
X126698600Y-99473180D01*
X126563709Y-99706818D01*
X126465148Y-99957947D01*
X126465142Y-99957966D01*
X126405113Y-100220971D01*
X126405113Y-100220973D01*
X126384953Y-100489995D01*
X126384953Y-100490004D01*
X125290500Y-100490004D01*
X125290500Y-96757870D01*
X126389500Y-96757870D01*
X126389501Y-96757876D01*
X126395908Y-96817483D01*
X126446202Y-96952328D01*
X126446206Y-96952335D01*
X126532452Y-97067544D01*
X126532455Y-97067547D01*
X126647664Y-97153793D01*
X126647671Y-97153797D01*
X126782517Y-97204091D01*
X126782516Y-97204091D01*
X126789444Y-97204835D01*
X126842127Y-97210500D01*
X129537872Y-97210499D01*
X129597483Y-97204091D01*
X129732331Y-97153796D01*
X129847546Y-97067546D01*
X129933796Y-96952331D01*
X129984091Y-96817483D01*
X129990500Y-96757873D01*
X129990500Y-96020002D01*
X141605034Y-96020002D01*
X141624858Y-96246599D01*
X141624860Y-96246610D01*
X141683730Y-96466317D01*
X141683735Y-96466331D01*
X141779863Y-96672478D01*
X141830974Y-96745472D01*
X142510000Y-96066446D01*
X142510000Y-96072661D01*
X142537259Y-96174394D01*
X142589920Y-96265606D01*
X142664394Y-96340080D01*
X142755606Y-96392741D01*
X142857339Y-96420000D01*
X142863553Y-96420000D01*
X142184526Y-97099025D01*
X142257513Y-97150132D01*
X142257521Y-97150136D01*
X142463668Y-97246264D01*
X142463682Y-97246269D01*
X142683389Y-97305139D01*
X142683400Y-97305141D01*
X142909998Y-97324966D01*
X142910002Y-97324966D01*
X143136599Y-97305141D01*
X143136610Y-97305139D01*
X143356317Y-97246269D01*
X143356331Y-97246264D01*
X143562478Y-97150136D01*
X143635471Y-97099024D01*
X142956447Y-96420000D01*
X142962661Y-96420000D01*
X143064394Y-96392741D01*
X143155606Y-96340080D01*
X143230080Y-96265606D01*
X143282741Y-96174394D01*
X143310000Y-96072661D01*
X143310000Y-96066447D01*
X143989024Y-96745471D01*
X144040136Y-96672478D01*
X144136264Y-96466331D01*
X144136269Y-96466317D01*
X144195139Y-96246610D01*
X144195141Y-96246599D01*
X144214966Y-96020002D01*
X144214966Y-96020001D01*
X151764532Y-96020001D01*
X151784364Y-96246686D01*
X151784366Y-96246697D01*
X151843258Y-96466488D01*
X151843261Y-96466497D01*
X151939431Y-96672732D01*
X151939432Y-96672734D01*
X152069954Y-96859141D01*
X152230858Y-97020045D01*
X152417262Y-97150566D01*
X152418667Y-97151377D01*
X152419162Y-97151896D01*
X152421701Y-97153674D01*
X152421343Y-97154184D01*
X152466883Y-97201944D01*
X152476442Y-97226668D01*
X152510423Y-97353485D01*
X152532886Y-97392391D01*
X152549500Y-97454392D01*
X152549500Y-101548306D01*
X152529815Y-101615345D01*
X152496623Y-101649881D01*
X152310859Y-101779953D01*
X152149954Y-101940858D01*
X152019432Y-102127265D01*
X152019431Y-102127267D01*
X151923261Y-102333502D01*
X151923258Y-102333511D01*
X151864366Y-102553302D01*
X151864364Y-102553313D01*
X151844532Y-102779998D01*
X151844532Y-102780001D01*
X151864364Y-103006686D01*
X151864366Y-103006697D01*
X151923258Y-103226488D01*
X151923261Y-103226497D01*
X152019431Y-103432732D01*
X152019432Y-103432734D01*
X152149954Y-103619141D01*
X152310858Y-103780045D01*
X152310861Y-103780047D01*
X152496624Y-103910118D01*
X152540248Y-103964693D01*
X152549500Y-104011692D01*
X152549500Y-106884073D01*
X152529815Y-106951112D01*
X152516731Y-106968055D01*
X152481019Y-107006849D01*
X152354075Y-107201151D01*
X152260842Y-107413699D01*
X152203866Y-107638691D01*
X152203864Y-107638702D01*
X152184700Y-107869993D01*
X152184700Y-107870006D01*
X152203864Y-108101297D01*
X152203866Y-108101308D01*
X152260842Y-108326300D01*
X152354075Y-108538848D01*
X152481016Y-108733147D01*
X152481019Y-108733151D01*
X152481021Y-108733153D01*
X152638216Y-108903913D01*
X152638219Y-108903915D01*
X152638222Y-108903918D01*
X152821365Y-109046464D01*
X152821371Y-109046468D01*
X152821374Y-109046470D01*
X153025497Y-109156936D01*
X153139487Y-109196068D01*
X153245015Y-109232297D01*
X153245017Y-109232297D01*
X153245019Y-109232298D01*
X153473951Y-109270500D01*
X153473952Y-109270500D01*
X153706048Y-109270500D01*
X153706049Y-109270500D01*
X153934981Y-109232298D01*
X154154503Y-109156936D01*
X154358626Y-109046470D01*
X154541784Y-108903913D01*
X154698979Y-108733153D01*
X154825924Y-108538849D01*
X154919157Y-108326300D01*
X154976134Y-108101305D01*
X154991679Y-107913700D01*
X154995300Y-107870006D01*
X154995300Y-107869993D01*
X154976135Y-107638702D01*
X154976133Y-107638691D01*
X154919157Y-107413699D01*
X154825924Y-107201151D01*
X154698983Y-107006852D01*
X154698980Y-107006849D01*
X154698979Y-107006847D01*
X154541784Y-106836087D01*
X154541779Y-106836083D01*
X154541777Y-106836081D01*
X154358634Y-106693535D01*
X154358628Y-106693531D01*
X154154504Y-106583064D01*
X154154495Y-106583061D01*
X153934983Y-106507702D01*
X153854090Y-106494203D01*
X153791205Y-106463752D01*
X153754765Y-106404137D01*
X153750500Y-106371894D01*
X153750500Y-104011692D01*
X153770185Y-103944653D01*
X153803374Y-103910119D01*
X153989139Y-103780047D01*
X154150047Y-103619139D01*
X154280568Y-103432734D01*
X154376739Y-103226496D01*
X154435635Y-103006692D01*
X154455468Y-102780000D01*
X154435635Y-102553308D01*
X154376739Y-102333504D01*
X154280568Y-102127266D01*
X154150047Y-101940861D01*
X154150045Y-101940858D01*
X153989140Y-101779953D01*
X153803377Y-101649881D01*
X153759752Y-101595304D01*
X153750500Y-101548306D01*
X153750500Y-97195676D01*
X153770185Y-97128637D01*
X153803375Y-97094102D01*
X153909139Y-97020047D01*
X154070047Y-96859139D01*
X154200568Y-96672734D01*
X154296739Y-96466496D01*
X154355635Y-96246692D01*
X154375468Y-96020000D01*
X154355635Y-95793308D01*
X154296739Y-95573504D01*
X154200568Y-95367266D01*
X154070047Y-95180861D01*
X154070045Y-95180858D01*
X153909141Y-95019954D01*
X153722734Y-94889432D01*
X153722732Y-94889431D01*
X153516497Y-94793261D01*
X153516488Y-94793258D01*
X153296697Y-94734366D01*
X153296693Y-94734365D01*
X153296692Y-94734365D01*
X153296691Y-94734364D01*
X153296686Y-94734364D01*
X153070002Y-94714532D01*
X153069998Y-94714532D01*
X152843313Y-94734364D01*
X152843302Y-94734366D01*
X152623511Y-94793258D01*
X152623502Y-94793261D01*
X152417267Y-94889431D01*
X152417265Y-94889432D01*
X152230858Y-95019954D01*
X152069954Y-95180858D01*
X151939432Y-95367265D01*
X151939431Y-95367267D01*
X151843261Y-95573502D01*
X151843258Y-95573511D01*
X151784366Y-95793302D01*
X151784364Y-95793313D01*
X151764532Y-96019998D01*
X151764532Y-96020001D01*
X144214966Y-96020001D01*
X144214966Y-96019997D01*
X144195141Y-95793400D01*
X144195139Y-95793389D01*
X144136269Y-95573682D01*
X144136264Y-95573668D01*
X144040136Y-95367521D01*
X144040132Y-95367513D01*
X143989025Y-95294526D01*
X143310000Y-95973551D01*
X143310000Y-95967339D01*
X143282741Y-95865606D01*
X143230080Y-95774394D01*
X143155606Y-95699920D01*
X143064394Y-95647259D01*
X142962661Y-95620000D01*
X142956448Y-95620000D01*
X143635472Y-94940974D01*
X143562478Y-94889863D01*
X143356331Y-94793735D01*
X143356317Y-94793730D01*
X143136610Y-94734860D01*
X143136599Y-94734858D01*
X142910002Y-94715034D01*
X142909998Y-94715034D01*
X142683400Y-94734858D01*
X142683389Y-94734860D01*
X142463682Y-94793730D01*
X142463673Y-94793734D01*
X142257516Y-94889866D01*
X142257512Y-94889868D01*
X142184526Y-94940973D01*
X142184526Y-94940974D01*
X142863553Y-95620000D01*
X142857339Y-95620000D01*
X142755606Y-95647259D01*
X142664394Y-95699920D01*
X142589920Y-95774394D01*
X142537259Y-95865606D01*
X142510000Y-95967339D01*
X142510000Y-95973552D01*
X141830974Y-95294526D01*
X141830973Y-95294526D01*
X141779868Y-95367512D01*
X141779866Y-95367516D01*
X141683734Y-95573673D01*
X141683730Y-95573682D01*
X141624860Y-95793389D01*
X141624858Y-95793400D01*
X141605034Y-96019997D01*
X141605034Y-96020002D01*
X129990500Y-96020002D01*
X129990499Y-94062128D01*
X129984091Y-94002517D01*
X129959084Y-93935471D01*
X129933797Y-93867671D01*
X129933793Y-93867664D01*
X129847547Y-93752455D01*
X129847544Y-93752452D01*
X129732335Y-93666206D01*
X129732328Y-93666202D01*
X129597482Y-93615908D01*
X129597483Y-93615908D01*
X129537883Y-93609501D01*
X129537881Y-93609500D01*
X129537873Y-93609500D01*
X129537864Y-93609500D01*
X126842129Y-93609500D01*
X126842123Y-93609501D01*
X126782516Y-93615908D01*
X126647671Y-93666202D01*
X126647664Y-93666206D01*
X126532455Y-93752452D01*
X126532452Y-93752455D01*
X126446206Y-93867664D01*
X126446202Y-93867671D01*
X126395908Y-94002517D01*
X126390896Y-94049139D01*
X126389501Y-94062123D01*
X126389500Y-94062135D01*
X126389500Y-96757870D01*
X125290500Y-96757870D01*
X125290500Y-93210002D01*
X157315034Y-93210002D01*
X157334858Y-93436599D01*
X157334860Y-93436610D01*
X157393730Y-93656317D01*
X157393735Y-93656331D01*
X157489863Y-93862478D01*
X157540974Y-93935472D01*
X158220000Y-93256446D01*
X158220000Y-93262661D01*
X158247259Y-93364394D01*
X158299920Y-93455606D01*
X158374394Y-93530080D01*
X158465606Y-93582741D01*
X158567339Y-93610000D01*
X158573553Y-93610000D01*
X157894526Y-94289025D01*
X157967513Y-94340132D01*
X157967521Y-94340136D01*
X158173668Y-94436264D01*
X158173682Y-94436269D01*
X158393389Y-94495139D01*
X158393400Y-94495141D01*
X158619998Y-94514966D01*
X158620002Y-94514966D01*
X158846599Y-94495141D01*
X158846610Y-94495139D01*
X159066317Y-94436269D01*
X159066331Y-94436264D01*
X159272478Y-94340136D01*
X159345471Y-94289024D01*
X158666447Y-93610000D01*
X158672661Y-93610000D01*
X158774394Y-93582741D01*
X158865606Y-93530080D01*
X158940080Y-93455606D01*
X158992741Y-93364394D01*
X159020000Y-93262661D01*
X159020000Y-93256447D01*
X159699024Y-93935471D01*
X159750134Y-93862481D01*
X159757340Y-93847028D01*
X159803511Y-93794587D01*
X159870704Y-93775433D01*
X159937585Y-93795646D01*
X159982105Y-93847022D01*
X159989430Y-93862730D01*
X159989432Y-93862734D01*
X160119951Y-94049137D01*
X160119952Y-94049138D01*
X160119953Y-94049139D01*
X160183182Y-94112368D01*
X160216666Y-94173689D01*
X160219500Y-94200048D01*
X160219500Y-105318696D01*
X160254103Y-105492659D01*
X160254106Y-105492669D01*
X160269891Y-105530775D01*
X160269892Y-105530778D01*
X160321984Y-105656542D01*
X160321985Y-105656544D01*
X160381063Y-105744960D01*
X160381064Y-105744961D01*
X160420534Y-105804034D01*
X160420535Y-105804035D01*
X160420536Y-105804036D01*
X161624202Y-107007702D01*
X162824143Y-108207642D01*
X162857628Y-108268965D01*
X162860039Y-108305561D01*
X162854700Y-108370004D01*
X162854700Y-108370006D01*
X162873864Y-108601297D01*
X162873866Y-108601308D01*
X162930842Y-108826300D01*
X163024075Y-109038848D01*
X163151016Y-109233147D01*
X163151019Y-109233151D01*
X163151021Y-109233153D01*
X163308216Y-109403913D01*
X163308219Y-109403915D01*
X163308222Y-109403918D01*
X163491365Y-109546464D01*
X163491371Y-109546468D01*
X163491374Y-109546470D01*
X163695497Y-109656936D01*
X163809487Y-109696068D01*
X163915015Y-109732297D01*
X163915017Y-109732297D01*
X163915019Y-109732298D01*
X164143951Y-109770500D01*
X164143952Y-109770500D01*
X164376048Y-109770500D01*
X164376049Y-109770500D01*
X164604981Y-109732298D01*
X164824503Y-109656936D01*
X165028626Y-109546470D01*
X165211784Y-109403913D01*
X165368979Y-109233153D01*
X165495924Y-109038849D01*
X165589157Y-108826300D01*
X165646134Y-108601305D01*
X165646135Y-108601297D01*
X165665300Y-108370006D01*
X165665300Y-108369993D01*
X165646135Y-108138702D01*
X165646133Y-108138691D01*
X165589157Y-107913699D01*
X165495924Y-107701151D01*
X165368983Y-107506852D01*
X165368980Y-107506849D01*
X165368979Y-107506847D01*
X165211784Y-107336087D01*
X165211779Y-107336083D01*
X165211777Y-107336081D01*
X165028634Y-107193535D01*
X165028628Y-107193531D01*
X164824504Y-107083064D01*
X164824495Y-107083061D01*
X164604984Y-107007702D01*
X164433282Y-106979050D01*
X164376049Y-106969500D01*
X164184361Y-106969500D01*
X164117322Y-106949815D01*
X164096680Y-106933181D01*
X162056819Y-104893319D01*
X162023334Y-104831996D01*
X162020500Y-104805638D01*
X162020500Y-101550006D01*
X164834700Y-101550006D01*
X164853864Y-101781297D01*
X164853866Y-101781308D01*
X164910842Y-102006300D01*
X165004075Y-102218848D01*
X165131016Y-102413147D01*
X165131019Y-102413151D01*
X165131021Y-102413153D01*
X165288216Y-102583913D01*
X165288219Y-102583915D01*
X165288222Y-102583918D01*
X165471365Y-102726464D01*
X165471371Y-102726468D01*
X165471374Y-102726470D01*
X165675497Y-102836936D01*
X165789487Y-102876068D01*
X165895015Y-102912297D01*
X165895017Y-102912297D01*
X165895019Y-102912298D01*
X166123951Y-102950500D01*
X166123952Y-102950500D01*
X166356048Y-102950500D01*
X166356049Y-102950500D01*
X166584981Y-102912298D01*
X166804503Y-102836936D01*
X167008626Y-102726470D01*
X167191784Y-102583913D01*
X167348979Y-102413153D01*
X167475924Y-102218849D01*
X167569157Y-102006300D01*
X167626134Y-101781305D01*
X167626246Y-101779953D01*
X167645300Y-101550006D01*
X167645300Y-101549993D01*
X167626135Y-101318702D01*
X167626133Y-101318691D01*
X167569157Y-101093699D01*
X167546861Y-101042870D01*
X173834500Y-101042870D01*
X173834501Y-101042876D01*
X173840908Y-101102483D01*
X173891202Y-101237328D01*
X173891206Y-101237335D01*
X173977452Y-101352544D01*
X173977455Y-101352547D01*
X174092664Y-101438793D01*
X174092671Y-101438797D01*
X174227517Y-101489091D01*
X174227516Y-101489091D01*
X174234444Y-101489835D01*
X174287127Y-101495500D01*
X176982872Y-101495499D01*
X177042483Y-101489091D01*
X177177331Y-101438796D01*
X177292546Y-101352546D01*
X177378796Y-101237331D01*
X177429091Y-101102483D01*
X177435500Y-101042873D01*
X177435499Y-98347128D01*
X177429091Y-98287517D01*
X177378796Y-98152669D01*
X177378795Y-98152668D01*
X177378793Y-98152664D01*
X177292547Y-98037455D01*
X177292544Y-98037452D01*
X177177335Y-97951206D01*
X177177328Y-97951202D01*
X177042482Y-97900908D01*
X177042483Y-97900908D01*
X176982883Y-97894501D01*
X176982881Y-97894500D01*
X176982873Y-97894500D01*
X176982864Y-97894500D01*
X174287129Y-97894500D01*
X174287123Y-97894501D01*
X174227516Y-97900908D01*
X174092671Y-97951202D01*
X174092664Y-97951206D01*
X173977455Y-98037452D01*
X173977452Y-98037455D01*
X173891206Y-98152664D01*
X173891202Y-98152671D01*
X173840908Y-98287517D01*
X173834501Y-98347116D01*
X173834501Y-98347123D01*
X173834500Y-98347135D01*
X173834500Y-101042870D01*
X167546861Y-101042870D01*
X167475924Y-100881151D01*
X167348983Y-100686852D01*
X167348980Y-100686849D01*
X167348979Y-100686847D01*
X167191784Y-100516087D01*
X167191779Y-100516083D01*
X167191777Y-100516081D01*
X167008634Y-100373535D01*
X167008623Y-100373528D01*
X166905481Y-100317709D01*
X166855891Y-100268489D01*
X166840500Y-100208655D01*
X166840500Y-94615004D01*
X173829953Y-94615004D01*
X173850113Y-94884026D01*
X173850113Y-94884028D01*
X173910142Y-95147033D01*
X173910148Y-95147052D01*
X174008709Y-95398181D01*
X174008708Y-95398181D01*
X174143602Y-95631822D01*
X174197294Y-95699151D01*
X174197295Y-95699151D01*
X175033958Y-94862488D01*
X175058978Y-94922890D01*
X175130112Y-95029351D01*
X175220649Y-95119888D01*
X175327110Y-95191022D01*
X175387510Y-95216041D01*
X174549848Y-96053702D01*
X174732483Y-96178220D01*
X174732485Y-96178221D01*
X174975539Y-96295269D01*
X174975537Y-96295269D01*
X175233337Y-96374790D01*
X175233343Y-96374792D01*
X175500101Y-96414999D01*
X175500110Y-96415000D01*
X175769890Y-96415000D01*
X175769898Y-96414999D01*
X176036656Y-96374792D01*
X176036662Y-96374790D01*
X176294461Y-96295269D01*
X176537521Y-96178218D01*
X176720150Y-96053702D01*
X175882488Y-95216041D01*
X175942890Y-95191022D01*
X176049351Y-95119888D01*
X176139888Y-95029351D01*
X176211022Y-94922890D01*
X176236041Y-94862488D01*
X177072703Y-95699151D01*
X177072704Y-95699150D01*
X177126393Y-95631828D01*
X177126400Y-95631817D01*
X177261290Y-95398181D01*
X177359851Y-95147052D01*
X177359857Y-95147033D01*
X177419886Y-94884028D01*
X177419886Y-94884026D01*
X177440047Y-94615004D01*
X177440047Y-94614995D01*
X177419886Y-94345973D01*
X177419886Y-94345971D01*
X177359857Y-94082966D01*
X177359851Y-94082947D01*
X177261290Y-93831818D01*
X177261291Y-93831818D01*
X177126397Y-93598177D01*
X177072704Y-93530847D01*
X176236041Y-94367510D01*
X176211022Y-94307110D01*
X176139888Y-94200649D01*
X176049351Y-94110112D01*
X175942890Y-94038978D01*
X175882488Y-94013958D01*
X176720150Y-93176296D01*
X176537517Y-93051779D01*
X176537516Y-93051778D01*
X176294460Y-92934730D01*
X176294462Y-92934730D01*
X176036662Y-92855209D01*
X176036656Y-92855207D01*
X175769898Y-92815000D01*
X175500101Y-92815000D01*
X175233343Y-92855207D01*
X175233337Y-92855209D01*
X174975538Y-92934730D01*
X174732485Y-93051778D01*
X174732476Y-93051783D01*
X174549848Y-93176296D01*
X175387511Y-94013958D01*
X175327110Y-94038978D01*
X175220649Y-94110112D01*
X175130112Y-94200649D01*
X175058978Y-94307110D01*
X175033958Y-94367511D01*
X174197295Y-93530848D01*
X174143600Y-93598180D01*
X174008709Y-93831818D01*
X173910148Y-94082947D01*
X173910142Y-94082966D01*
X173850113Y-94345971D01*
X173850113Y-94345973D01*
X173829953Y-94614995D01*
X173829953Y-94615004D01*
X166840500Y-94615004D01*
X166840500Y-91530097D01*
X166860185Y-91463058D01*
X166876819Y-91442416D01*
X168784231Y-89535004D01*
X173829451Y-89535004D01*
X173849616Y-89804101D01*
X173909664Y-90067188D01*
X173909666Y-90067195D01*
X174008257Y-90318398D01*
X174143185Y-90552102D01*
X174279080Y-90722509D01*
X174311442Y-90763089D01*
X174498183Y-90936358D01*
X174509259Y-90946635D01*
X174732226Y-91098651D01*
X174975359Y-91215738D01*
X175233228Y-91295280D01*
X175233229Y-91295280D01*
X175233232Y-91295281D01*
X175500063Y-91335499D01*
X175500068Y-91335499D01*
X175500071Y-91335500D01*
X175500072Y-91335500D01*
X175769928Y-91335500D01*
X175769929Y-91335500D01*
X175769936Y-91335499D01*
X176036767Y-91295281D01*
X176036768Y-91295280D01*
X176036772Y-91295280D01*
X176294641Y-91215738D01*
X176537775Y-91098651D01*
X176760741Y-90946635D01*
X176958561Y-90763085D01*
X177126815Y-90552102D01*
X177261743Y-90318398D01*
X177360334Y-90067195D01*
X177420383Y-89804103D01*
X177440549Y-89535000D01*
X177420383Y-89265897D01*
X177360334Y-89002805D01*
X177261743Y-88751602D01*
X177126815Y-88517898D01*
X176958561Y-88306915D01*
X176958560Y-88306914D01*
X176958557Y-88306910D01*
X176760741Y-88123365D01*
X176537775Y-87971349D01*
X176537769Y-87971346D01*
X176537768Y-87971345D01*
X176537767Y-87971344D01*
X176294643Y-87854263D01*
X176294645Y-87854263D01*
X176036773Y-87774720D01*
X176036767Y-87774718D01*
X175769936Y-87734500D01*
X175769929Y-87734500D01*
X175500071Y-87734500D01*
X175500063Y-87734500D01*
X175233232Y-87774718D01*
X175233226Y-87774720D01*
X174975358Y-87854262D01*
X174732230Y-87971346D01*
X174509258Y-88123365D01*
X174311442Y-88306910D01*
X174143185Y-88517898D01*
X174008258Y-88751599D01*
X174008256Y-88751603D01*
X173909666Y-89002804D01*
X173909664Y-89002811D01*
X173849616Y-89265898D01*
X173829451Y-89534995D01*
X173829451Y-89535004D01*
X168784231Y-89535004D01*
X173227416Y-85091819D01*
X173288739Y-85058334D01*
X173315097Y-85055500D01*
X173851933Y-85055500D01*
X173918972Y-85075185D01*
X173964727Y-85127989D01*
X173967361Y-85134198D01*
X174008254Y-85238392D01*
X174008256Y-85238396D01*
X174008257Y-85238398D01*
X174143185Y-85472102D01*
X174257885Y-85615931D01*
X174311442Y-85683089D01*
X174498183Y-85856358D01*
X174509259Y-85866635D01*
X174732226Y-86018651D01*
X174975359Y-86135738D01*
X175233228Y-86215280D01*
X175233229Y-86215280D01*
X175233232Y-86215281D01*
X175500063Y-86255499D01*
X175500068Y-86255499D01*
X175500071Y-86255500D01*
X175500072Y-86255500D01*
X175769928Y-86255500D01*
X175769929Y-86255500D01*
X175769936Y-86255499D01*
X176036767Y-86215281D01*
X176036768Y-86215280D01*
X176036772Y-86215280D01*
X176294641Y-86135738D01*
X176537775Y-86018651D01*
X176760741Y-85866635D01*
X176914259Y-85724190D01*
X176958557Y-85683089D01*
X176958557Y-85683087D01*
X176958561Y-85683085D01*
X177126815Y-85472102D01*
X177261743Y-85238398D01*
X177360334Y-84987195D01*
X177420383Y-84724103D01*
X177433759Y-84545606D01*
X177440549Y-84455004D01*
X177440549Y-84454995D01*
X177420383Y-84185898D01*
X177373370Y-83979920D01*
X177360334Y-83922805D01*
X177261743Y-83671602D01*
X177126815Y-83437898D01*
X176958561Y-83226915D01*
X176958560Y-83226914D01*
X176958557Y-83226910D01*
X176760741Y-83043365D01*
X176718929Y-83014858D01*
X176537775Y-82891349D01*
X176537769Y-82891346D01*
X176537768Y-82891345D01*
X176537767Y-82891344D01*
X176294643Y-82774263D01*
X176294645Y-82774263D01*
X176036773Y-82694720D01*
X176036767Y-82694718D01*
X175769936Y-82654500D01*
X175769929Y-82654500D01*
X175500071Y-82654500D01*
X175500063Y-82654500D01*
X175233232Y-82694718D01*
X175233226Y-82694720D01*
X174975358Y-82774262D01*
X174732230Y-82891346D01*
X174509258Y-83043365D01*
X174311442Y-83226910D01*
X174143185Y-83437898D01*
X174008258Y-83671599D01*
X174008254Y-83671607D01*
X173967361Y-83775802D01*
X173924545Y-83831016D01*
X173858675Y-83854317D01*
X173851933Y-83854500D01*
X173101669Y-83854500D01*
X173101653Y-83854499D01*
X173094057Y-83854499D01*
X172935943Y-83854499D01*
X172828587Y-83883265D01*
X172783210Y-83895424D01*
X172783209Y-83895425D01*
X172733096Y-83924359D01*
X172733095Y-83924360D01*
X172728074Y-83927259D01*
X172646285Y-83974479D01*
X172646282Y-83974481D01*
X165759481Y-90861282D01*
X165759479Y-90861285D01*
X165710204Y-90946634D01*
X165710202Y-90946636D01*
X165680425Y-90998209D01*
X165680424Y-90998210D01*
X165680423Y-90998215D01*
X165639499Y-91150943D01*
X165639499Y-91150945D01*
X165639499Y-91319046D01*
X165639500Y-91319059D01*
X165639500Y-100208655D01*
X165619815Y-100275694D01*
X165574519Y-100317709D01*
X165471376Y-100373528D01*
X165471365Y-100373535D01*
X165288222Y-100516081D01*
X165288219Y-100516084D01*
X165131016Y-100686852D01*
X165004075Y-100881151D01*
X164910842Y-101093699D01*
X164853866Y-101318691D01*
X164853864Y-101318702D01*
X164834700Y-101549993D01*
X164834700Y-101550006D01*
X162020500Y-101550006D01*
X162020500Y-94200048D01*
X162040185Y-94133009D01*
X162056814Y-94112371D01*
X162120047Y-94049139D01*
X162250568Y-93862734D01*
X162346739Y-93656496D01*
X162405635Y-93436692D01*
X162425468Y-93210000D01*
X162405635Y-92983308D01*
X162346739Y-92763504D01*
X162250568Y-92557266D01*
X162120047Y-92370861D01*
X162120045Y-92370858D01*
X162056819Y-92307632D01*
X162023334Y-92246309D01*
X162020500Y-92219951D01*
X162020500Y-92204361D01*
X162040185Y-92137322D01*
X162056819Y-92116680D01*
X165189461Y-88984038D01*
X165189464Y-88984035D01*
X165224229Y-88932006D01*
X165288013Y-88836547D01*
X165323198Y-88751602D01*
X165355895Y-88672666D01*
X165390500Y-88498691D01*
X165390500Y-88321308D01*
X165390500Y-87790048D01*
X165410185Y-87723009D01*
X165426814Y-87702371D01*
X165490047Y-87639139D01*
X165620568Y-87452734D01*
X165716739Y-87246496D01*
X165775635Y-87026692D01*
X165795468Y-86800000D01*
X165793632Y-86779019D01*
X165788031Y-86714995D01*
X165775635Y-86573308D01*
X165716739Y-86353504D01*
X165620568Y-86147266D01*
X165490047Y-85960861D01*
X165490045Y-85960858D01*
X165329141Y-85799954D01*
X165142734Y-85669432D01*
X165142730Y-85669430D01*
X165127022Y-85662105D01*
X165074583Y-85615931D01*
X165055433Y-85548737D01*
X165075650Y-85481857D01*
X165127028Y-85437340D01*
X165142481Y-85430134D01*
X165215471Y-85379024D01*
X164536447Y-84700000D01*
X164542661Y-84700000D01*
X164644394Y-84672741D01*
X164735606Y-84620080D01*
X164810080Y-84545606D01*
X164862741Y-84454394D01*
X164890000Y-84352661D01*
X164890000Y-84346447D01*
X165569024Y-85025471D01*
X165620136Y-84952478D01*
X165716264Y-84746331D01*
X165716269Y-84746317D01*
X165775139Y-84526610D01*
X165775141Y-84526599D01*
X165794966Y-84300002D01*
X165794966Y-84299997D01*
X165775141Y-84073400D01*
X165775139Y-84073389D01*
X165716269Y-83853682D01*
X165716264Y-83853668D01*
X165620136Y-83647521D01*
X165620132Y-83647513D01*
X165569025Y-83574526D01*
X164890000Y-84253551D01*
X164890000Y-84247339D01*
X164862741Y-84145606D01*
X164810080Y-84054394D01*
X164735606Y-83979920D01*
X164644394Y-83927259D01*
X164542661Y-83900000D01*
X164536448Y-83900000D01*
X165215472Y-83220974D01*
X165142478Y-83169863D01*
X164936331Y-83073735D01*
X164936317Y-83073730D01*
X164716610Y-83014860D01*
X164716599Y-83014858D01*
X164490002Y-82995034D01*
X164489998Y-82995034D01*
X164263400Y-83014858D01*
X164263389Y-83014860D01*
X164043682Y-83073730D01*
X164043673Y-83073734D01*
X163837516Y-83169866D01*
X163837512Y-83169868D01*
X163764526Y-83220973D01*
X163764526Y-83220974D01*
X164443553Y-83900000D01*
X164437339Y-83900000D01*
X164335606Y-83927259D01*
X164244394Y-83979920D01*
X164169920Y-84054394D01*
X164117259Y-84145606D01*
X164090000Y-84247339D01*
X164090000Y-84253552D01*
X163410974Y-83574526D01*
X163410973Y-83574526D01*
X163359868Y-83647512D01*
X163359866Y-83647516D01*
X163263734Y-83853673D01*
X163263730Y-83853682D01*
X163204860Y-84073389D01*
X163204858Y-84073400D01*
X163185034Y-84299997D01*
X163185034Y-84300002D01*
X163204858Y-84526599D01*
X163204860Y-84526610D01*
X163263730Y-84746317D01*
X163263735Y-84746331D01*
X163359863Y-84952478D01*
X163410974Y-85025472D01*
X164090000Y-84346446D01*
X164090000Y-84352661D01*
X164117259Y-84454394D01*
X164169920Y-84545606D01*
X164244394Y-84620080D01*
X164335606Y-84672741D01*
X164437339Y-84700000D01*
X164443553Y-84700000D01*
X163764526Y-85379025D01*
X163837513Y-85430132D01*
X163837515Y-85430133D01*
X163852973Y-85437341D01*
X163905413Y-85483513D01*
X163924566Y-85550706D01*
X163904351Y-85617587D01*
X163852979Y-85662104D01*
X163837270Y-85669429D01*
X163837265Y-85669432D01*
X163650858Y-85799954D01*
X163489954Y-85960858D01*
X163359432Y-86147265D01*
X163359431Y-86147267D01*
X163263261Y-86353502D01*
X163263258Y-86353511D01*
X163204366Y-86573302D01*
X163204364Y-86573313D01*
X163184532Y-86799998D01*
X163184532Y-86800001D01*
X163204364Y-87026686D01*
X163204366Y-87026697D01*
X163263258Y-87246488D01*
X163263261Y-87246497D01*
X163359431Y-87452732D01*
X163359432Y-87452734D01*
X163489951Y-87639137D01*
X163489952Y-87639138D01*
X163489953Y-87639139D01*
X163553182Y-87702368D01*
X163586666Y-87763689D01*
X163589500Y-87790048D01*
X163589500Y-87985637D01*
X163569815Y-88052676D01*
X163553181Y-88073318D01*
X160420538Y-91205960D01*
X160420537Y-91205961D01*
X160381064Y-91265039D01*
X160381063Y-91265040D01*
X160321985Y-91353455D01*
X160288046Y-91435393D01*
X160254106Y-91517329D01*
X160254103Y-91517341D01*
X160219500Y-91691303D01*
X160219500Y-92219951D01*
X160199815Y-92286990D01*
X160183181Y-92307632D01*
X160119954Y-92370858D01*
X159989432Y-92557265D01*
X159989429Y-92557270D01*
X159982104Y-92572979D01*
X159935929Y-92625417D01*
X159868735Y-92644566D01*
X159801855Y-92624347D01*
X159757341Y-92572973D01*
X159750133Y-92557515D01*
X159750132Y-92557513D01*
X159699025Y-92484526D01*
X159020000Y-93163551D01*
X159020000Y-93157339D01*
X158992741Y-93055606D01*
X158940080Y-92964394D01*
X158865606Y-92889920D01*
X158774394Y-92837259D01*
X158672661Y-92810000D01*
X158666448Y-92810000D01*
X159345472Y-92130974D01*
X159272478Y-92079863D01*
X159066331Y-91983735D01*
X159066317Y-91983730D01*
X158846610Y-91924860D01*
X158846599Y-91924858D01*
X158620002Y-91905034D01*
X158619998Y-91905034D01*
X158393400Y-91924858D01*
X158393389Y-91924860D01*
X158173682Y-91983730D01*
X158173673Y-91983734D01*
X157967516Y-92079866D01*
X157967512Y-92079868D01*
X157894526Y-92130973D01*
X157894526Y-92130974D01*
X158573553Y-92810000D01*
X158567339Y-92810000D01*
X158465606Y-92837259D01*
X158374394Y-92889920D01*
X158299920Y-92964394D01*
X158247259Y-93055606D01*
X158220000Y-93157339D01*
X158220000Y-93163552D01*
X157540974Y-92484526D01*
X157540973Y-92484526D01*
X157489868Y-92557512D01*
X157489866Y-92557516D01*
X157393734Y-92763673D01*
X157393730Y-92763682D01*
X157334860Y-92983389D01*
X157334858Y-92983400D01*
X157315034Y-93209997D01*
X157315034Y-93210002D01*
X125290500Y-93210002D01*
X125290500Y-86715004D01*
X126399953Y-86715004D01*
X126420113Y-86984026D01*
X126420113Y-86984028D01*
X126480142Y-87247033D01*
X126480148Y-87247052D01*
X126578709Y-87498181D01*
X126578708Y-87498181D01*
X126713602Y-87731822D01*
X126767294Y-87799151D01*
X126767295Y-87799151D01*
X127603958Y-86962488D01*
X127628978Y-87022890D01*
X127700112Y-87129351D01*
X127790649Y-87219888D01*
X127897110Y-87291022D01*
X127957510Y-87316041D01*
X127119848Y-88153702D01*
X127302483Y-88278220D01*
X127302485Y-88278221D01*
X127545539Y-88395269D01*
X127545537Y-88395269D01*
X127803337Y-88474790D01*
X127803343Y-88474792D01*
X128070101Y-88514999D01*
X128070110Y-88515000D01*
X128339890Y-88515000D01*
X128339898Y-88514999D01*
X128606656Y-88474792D01*
X128606662Y-88474790D01*
X128864461Y-88395269D01*
X129107521Y-88278218D01*
X129290150Y-88153702D01*
X128452488Y-87316041D01*
X128512890Y-87291022D01*
X128619351Y-87219888D01*
X128709888Y-87129351D01*
X128781022Y-87022890D01*
X128806041Y-86962488D01*
X129642703Y-87799151D01*
X129642704Y-87799150D01*
X129696393Y-87731828D01*
X129696400Y-87731817D01*
X129831290Y-87498181D01*
X129929851Y-87247052D01*
X129929857Y-87247033D01*
X129989886Y-86984028D01*
X129989886Y-86984026D01*
X130010047Y-86715004D01*
X130010047Y-86714995D01*
X129989886Y-86445973D01*
X129989886Y-86445971D01*
X129929857Y-86182966D01*
X129929851Y-86182947D01*
X129831290Y-85931818D01*
X129831291Y-85931818D01*
X129696397Y-85698177D01*
X129642704Y-85630847D01*
X128806041Y-86467510D01*
X128781022Y-86407110D01*
X128709888Y-86300649D01*
X128619351Y-86210112D01*
X128512890Y-86138978D01*
X128452488Y-86113958D01*
X129290150Y-85276296D01*
X129107517Y-85151779D01*
X129107516Y-85151778D01*
X128864460Y-85034730D01*
X128864462Y-85034730D01*
X128606662Y-84955209D01*
X128606656Y-84955207D01*
X128339898Y-84915000D01*
X128070101Y-84915000D01*
X127803343Y-84955207D01*
X127803337Y-84955209D01*
X127545538Y-85034730D01*
X127302485Y-85151778D01*
X127302476Y-85151783D01*
X127119848Y-85276296D01*
X127957511Y-86113958D01*
X127897110Y-86138978D01*
X127790649Y-86210112D01*
X127700112Y-86300649D01*
X127628978Y-86407110D01*
X127603958Y-86467511D01*
X126767295Y-85630848D01*
X126713600Y-85698180D01*
X126578709Y-85931818D01*
X126480148Y-86182947D01*
X126480142Y-86182966D01*
X126420113Y-86445971D01*
X126420113Y-86445973D01*
X126399953Y-86714995D01*
X126399953Y-86715004D01*
X125290500Y-86715004D01*
X125290500Y-85591518D01*
X125310185Y-85524479D01*
X125326814Y-85503842D01*
X127358838Y-83471817D01*
X127420161Y-83438333D01*
X127446519Y-83435499D01*
X129552871Y-83435499D01*
X129552872Y-83435499D01*
X129612483Y-83429091D01*
X129747331Y-83378796D01*
X129862546Y-83292546D01*
X129948796Y-83177331D01*
X129999091Y-83042483D01*
X130005500Y-82982873D01*
X130005500Y-82250006D01*
X135384700Y-82250006D01*
X135403864Y-82481297D01*
X135403866Y-82481308D01*
X135460842Y-82706300D01*
X135554075Y-82918848D01*
X135681016Y-83113147D01*
X135681019Y-83113151D01*
X135681021Y-83113153D01*
X135838216Y-83283913D01*
X135838219Y-83283915D01*
X135838222Y-83283918D01*
X136021365Y-83426464D01*
X136021371Y-83426468D01*
X136021374Y-83426470D01*
X136225497Y-83536936D01*
X136334993Y-83574526D01*
X136445015Y-83612297D01*
X136445017Y-83612297D01*
X136445019Y-83612298D01*
X136673951Y-83650500D01*
X136673952Y-83650500D01*
X136906048Y-83650500D01*
X136906049Y-83650500D01*
X137134981Y-83612298D01*
X137354503Y-83536936D01*
X137558626Y-83426470D01*
X137741784Y-83283913D01*
X137773833Y-83249098D01*
X137827762Y-83190517D01*
X137887649Y-83154526D01*
X137918991Y-83150500D01*
X138275638Y-83150500D01*
X138342677Y-83170185D01*
X138363319Y-83186819D01*
X140483181Y-85306681D01*
X140516666Y-85368004D01*
X140519500Y-85394362D01*
X140519500Y-85980293D01*
X140499815Y-86047332D01*
X140465352Y-86082746D01*
X140356786Y-86156765D01*
X140169952Y-86330121D01*
X140169950Y-86330123D01*
X140011041Y-86529388D01*
X139883608Y-86750109D01*
X139790492Y-86987362D01*
X139790490Y-86987369D01*
X139733777Y-87235845D01*
X139714732Y-87489995D01*
X139714732Y-87490004D01*
X139733777Y-87744154D01*
X139758908Y-87854262D01*
X139790492Y-87992637D01*
X139883607Y-88229888D01*
X140011041Y-88450612D01*
X140169950Y-88649877D01*
X140356783Y-88823232D01*
X140567366Y-88966805D01*
X140567371Y-88966807D01*
X140567372Y-88966808D01*
X140567373Y-88966809D01*
X140642133Y-89002811D01*
X140796992Y-89077387D01*
X140796993Y-89077387D01*
X140796996Y-89077389D01*
X141040542Y-89152513D01*
X141292565Y-89190500D01*
X141547435Y-89190500D01*
X141799458Y-89152513D01*
X142043004Y-89077389D01*
X142272634Y-88966805D01*
X142483217Y-88823232D01*
X142670050Y-88649877D01*
X142828959Y-88450612D01*
X142956393Y-88229888D01*
X143049508Y-87992637D01*
X143106222Y-87744157D01*
X143125268Y-87490004D01*
X152414732Y-87490004D01*
X152433777Y-87744154D01*
X152458908Y-87854262D01*
X152490492Y-87992637D01*
X152583607Y-88229888D01*
X152711041Y-88450612D01*
X152869950Y-88649877D01*
X153056783Y-88823232D01*
X153267366Y-88966805D01*
X153267371Y-88966807D01*
X153267372Y-88966808D01*
X153267373Y-88966809D01*
X153342133Y-89002811D01*
X153496992Y-89077387D01*
X153496993Y-89077387D01*
X153496996Y-89077389D01*
X153740542Y-89152513D01*
X153992565Y-89190500D01*
X154247435Y-89190500D01*
X154499458Y-89152513D01*
X154743004Y-89077389D01*
X154972634Y-88966805D01*
X155183217Y-88823232D01*
X155370050Y-88649877D01*
X155528959Y-88450612D01*
X155656393Y-88229888D01*
X155749508Y-87992637D01*
X155806222Y-87744157D01*
X155825268Y-87490000D01*
X155822475Y-87452734D01*
X155807062Y-87247052D01*
X155806222Y-87235843D01*
X155749508Y-86987363D01*
X155656393Y-86750112D01*
X155528959Y-86529388D01*
X155370050Y-86330123D01*
X155183217Y-86156768D01*
X154972634Y-86013195D01*
X154972630Y-86013193D01*
X154972627Y-86013191D01*
X154972626Y-86013190D01*
X154743006Y-85902612D01*
X154743008Y-85902612D01*
X154499466Y-85827489D01*
X154499462Y-85827488D01*
X154499458Y-85827487D01*
X154378231Y-85809214D01*
X154247440Y-85789500D01*
X154247435Y-85789500D01*
X153992565Y-85789500D01*
X153992559Y-85789500D01*
X153835609Y-85813157D01*
X153740542Y-85827487D01*
X153740539Y-85827488D01*
X153740533Y-85827489D01*
X153496992Y-85902612D01*
X153267373Y-86013190D01*
X153267372Y-86013191D01*
X153056782Y-86156768D01*
X152869952Y-86330121D01*
X152869950Y-86330123D01*
X152711041Y-86529388D01*
X152583608Y-86750109D01*
X152490492Y-86987362D01*
X152490490Y-86987369D01*
X152433777Y-87235845D01*
X152414732Y-87489995D01*
X152414732Y-87490004D01*
X143125268Y-87490004D01*
X143125268Y-87490000D01*
X143122475Y-87452734D01*
X143107062Y-87247052D01*
X143106222Y-87235843D01*
X143049508Y-86987363D01*
X142956393Y-86750112D01*
X142828959Y-86529388D01*
X142670050Y-86330123D01*
X142483217Y-86156768D01*
X142469282Y-86147267D01*
X142374648Y-86082746D01*
X142330346Y-86028717D01*
X142320500Y-85980293D01*
X142320500Y-84881307D01*
X142315917Y-84858271D01*
X142309044Y-84823716D01*
X142305014Y-84803457D01*
X142285896Y-84707341D01*
X142285895Y-84707334D01*
X142218013Y-84543453D01*
X142218012Y-84543452D01*
X142218009Y-84543446D01*
X142119464Y-84395964D01*
X142119461Y-84395960D01*
X139274035Y-81550535D01*
X139274030Y-81550531D01*
X139214961Y-81511064D01*
X139214960Y-81511063D01*
X139126544Y-81451985D01*
X139126542Y-81451984D01*
X139044607Y-81418046D01*
X139044606Y-81418046D01*
X138962666Y-81384105D01*
X138962658Y-81384103D01*
X138788696Y-81349500D01*
X138788692Y-81349500D01*
X138788691Y-81349500D01*
X137918991Y-81349500D01*
X137851952Y-81329815D01*
X137827762Y-81309483D01*
X137741787Y-81216090D01*
X137741777Y-81216081D01*
X137695421Y-81180001D01*
X142634532Y-81180001D01*
X142654364Y-81406686D01*
X142654366Y-81406697D01*
X142713258Y-81626488D01*
X142713261Y-81626497D01*
X142809431Y-81832732D01*
X142809432Y-81832734D01*
X142939954Y-82019141D01*
X143100858Y-82180045D01*
X143100861Y-82180047D01*
X143287266Y-82310568D01*
X143493504Y-82406739D01*
X143713308Y-82465635D01*
X143875230Y-82479801D01*
X143939998Y-82485468D01*
X143940000Y-82485468D01*
X143940002Y-82485468D01*
X143996673Y-82480509D01*
X144166692Y-82465635D01*
X144386496Y-82406739D01*
X144592734Y-82310568D01*
X144779139Y-82180047D01*
X144940047Y-82019139D01*
X145070568Y-81832734D01*
X145166739Y-81626496D01*
X145225635Y-81406692D01*
X145245468Y-81180001D01*
X152794532Y-81180001D01*
X152814364Y-81406686D01*
X152814366Y-81406697D01*
X152873258Y-81626488D01*
X152873261Y-81626497D01*
X152969431Y-81832732D01*
X152969432Y-81832734D01*
X153099954Y-82019141D01*
X153260858Y-82180045D01*
X153260861Y-82180047D01*
X153447266Y-82310568D01*
X153653504Y-82406739D01*
X153873308Y-82465635D01*
X154035230Y-82479801D01*
X154099998Y-82485468D01*
X154100000Y-82485468D01*
X154100002Y-82485468D01*
X154156673Y-82480509D01*
X154326692Y-82465635D01*
X154546496Y-82406739D01*
X154752734Y-82310568D01*
X154939139Y-82180047D01*
X155100047Y-82019139D01*
X155230568Y-81832734D01*
X155326739Y-81626496D01*
X155385635Y-81406692D01*
X155405468Y-81180001D01*
X156644532Y-81180001D01*
X156664364Y-81406686D01*
X156664366Y-81406697D01*
X156723258Y-81626488D01*
X156723261Y-81626497D01*
X156819431Y-81832732D01*
X156819432Y-81832734D01*
X156949954Y-82019141D01*
X157110858Y-82180045D01*
X157110861Y-82180047D01*
X157297266Y-82310568D01*
X157503504Y-82406739D01*
X157723308Y-82465635D01*
X157885230Y-82479801D01*
X157949998Y-82485468D01*
X157950000Y-82485468D01*
X157950002Y-82485468D01*
X158006673Y-82480509D01*
X158176692Y-82465635D01*
X158396496Y-82406739D01*
X158602734Y-82310568D01*
X158789139Y-82180047D01*
X158950047Y-82019139D01*
X159080568Y-81832734D01*
X159087893Y-81817024D01*
X159134064Y-81764586D01*
X159201257Y-81745433D01*
X159268138Y-81765648D01*
X159312657Y-81817024D01*
X159319864Y-81832480D01*
X159370974Y-81905472D01*
X160050000Y-81226446D01*
X160050000Y-81232661D01*
X160077259Y-81334394D01*
X160129920Y-81425606D01*
X160204394Y-81500080D01*
X160295606Y-81552741D01*
X160397339Y-81580000D01*
X160403553Y-81580000D01*
X159724526Y-82259025D01*
X159797513Y-82310132D01*
X159797521Y-82310136D01*
X160003668Y-82406264D01*
X160003682Y-82406269D01*
X160223389Y-82465139D01*
X160223400Y-82465141D01*
X160449998Y-82484966D01*
X160450002Y-82484966D01*
X160676599Y-82465141D01*
X160676610Y-82465139D01*
X160896317Y-82406269D01*
X160896331Y-82406264D01*
X161102478Y-82310136D01*
X161175471Y-82259024D01*
X160496447Y-81580000D01*
X160502661Y-81580000D01*
X160604394Y-81552741D01*
X160695606Y-81500080D01*
X160770080Y-81425606D01*
X160822741Y-81334394D01*
X160850000Y-81232661D01*
X160850000Y-81226447D01*
X161529024Y-81905471D01*
X161580136Y-81832478D01*
X161676264Y-81626331D01*
X161676269Y-81626317D01*
X161735139Y-81406610D01*
X161735141Y-81406599D01*
X161754966Y-81180002D01*
X161754966Y-81179997D01*
X161735141Y-80953400D01*
X161735139Y-80953389D01*
X161676269Y-80733682D01*
X161676264Y-80733668D01*
X161580136Y-80527521D01*
X161580132Y-80527513D01*
X161529025Y-80454526D01*
X160850000Y-81133551D01*
X160850000Y-81127339D01*
X160822741Y-81025606D01*
X160770080Y-80934394D01*
X160695606Y-80859920D01*
X160604394Y-80807259D01*
X160502661Y-80780000D01*
X160496448Y-80780000D01*
X161175472Y-80100974D01*
X161102478Y-80049863D01*
X160896331Y-79953735D01*
X160896317Y-79953730D01*
X160676610Y-79894860D01*
X160676599Y-79894858D01*
X160450002Y-79875034D01*
X160449998Y-79875034D01*
X160223400Y-79894858D01*
X160223389Y-79894860D01*
X160003682Y-79953730D01*
X160003673Y-79953734D01*
X159797516Y-80049866D01*
X159797512Y-80049868D01*
X159724526Y-80100973D01*
X159724526Y-80100974D01*
X160403553Y-80780000D01*
X160397339Y-80780000D01*
X160295606Y-80807259D01*
X160204394Y-80859920D01*
X160129920Y-80934394D01*
X160077259Y-81025606D01*
X160050000Y-81127339D01*
X160050000Y-81133552D01*
X159370974Y-80454526D01*
X159370973Y-80454526D01*
X159319868Y-80527512D01*
X159319867Y-80527514D01*
X159312656Y-80542979D01*
X159266482Y-80595417D01*
X159199288Y-80614567D01*
X159132407Y-80594350D01*
X159087893Y-80542976D01*
X159080568Y-80527266D01*
X158950047Y-80340861D01*
X158950045Y-80340858D01*
X158789141Y-80179954D01*
X158602734Y-80049432D01*
X158602732Y-80049431D01*
X158396497Y-79953261D01*
X158396488Y-79953258D01*
X158176697Y-79894366D01*
X158176693Y-79894365D01*
X158176692Y-79894365D01*
X158176691Y-79894364D01*
X158176686Y-79894364D01*
X157950002Y-79874532D01*
X157949998Y-79874532D01*
X157723313Y-79894364D01*
X157723302Y-79894366D01*
X157503511Y-79953258D01*
X157503502Y-79953261D01*
X157297267Y-80049431D01*
X157297265Y-80049432D01*
X157110858Y-80179954D01*
X156949954Y-80340858D01*
X156819432Y-80527265D01*
X156819431Y-80527267D01*
X156723261Y-80733502D01*
X156723258Y-80733511D01*
X156664366Y-80953302D01*
X156664364Y-80953313D01*
X156644532Y-81179998D01*
X156644532Y-81180001D01*
X155405468Y-81180001D01*
X155405468Y-81180000D01*
X155385635Y-80953308D01*
X155326739Y-80733504D01*
X155230568Y-80527266D01*
X155100047Y-80340861D01*
X155100045Y-80340858D01*
X154939141Y-80179954D01*
X154752734Y-80049432D01*
X154752732Y-80049431D01*
X154546497Y-79953261D01*
X154546488Y-79953258D01*
X154326697Y-79894366D01*
X154326693Y-79894365D01*
X154326692Y-79894365D01*
X154326691Y-79894364D01*
X154326686Y-79894364D01*
X154100002Y-79874532D01*
X154099998Y-79874532D01*
X153873313Y-79894364D01*
X153873302Y-79894366D01*
X153653511Y-79953258D01*
X153653502Y-79953261D01*
X153447267Y-80049431D01*
X153447265Y-80049432D01*
X153260858Y-80179954D01*
X153099954Y-80340858D01*
X152969432Y-80527265D01*
X152969431Y-80527267D01*
X152873261Y-80733502D01*
X152873258Y-80733511D01*
X152814366Y-80953302D01*
X152814364Y-80953313D01*
X152794532Y-81179998D01*
X152794532Y-81180001D01*
X145245468Y-81180001D01*
X145245468Y-81180000D01*
X145225635Y-80953308D01*
X145166739Y-80733504D01*
X145070568Y-80527266D01*
X144940047Y-80340861D01*
X144940045Y-80340858D01*
X144779141Y-80179954D01*
X144592734Y-80049432D01*
X144592732Y-80049431D01*
X144386497Y-79953261D01*
X144386488Y-79953258D01*
X144166697Y-79894366D01*
X144166693Y-79894365D01*
X144166692Y-79894365D01*
X144166691Y-79894364D01*
X144166686Y-79894364D01*
X143940002Y-79874532D01*
X143939998Y-79874532D01*
X143713313Y-79894364D01*
X143713302Y-79894366D01*
X143493511Y-79953258D01*
X143493502Y-79953261D01*
X143287267Y-80049431D01*
X143287265Y-80049432D01*
X143100858Y-80179954D01*
X142939954Y-80340858D01*
X142809432Y-80527265D01*
X142809431Y-80527267D01*
X142713261Y-80733502D01*
X142713258Y-80733511D01*
X142654366Y-80953302D01*
X142654364Y-80953313D01*
X142634532Y-81179998D01*
X142634532Y-81180001D01*
X137695421Y-81180001D01*
X137558634Y-81073535D01*
X137558628Y-81073531D01*
X137354504Y-80963064D01*
X137354495Y-80963061D01*
X137134984Y-80887702D01*
X136963282Y-80859050D01*
X136906049Y-80849500D01*
X136673951Y-80849500D01*
X136628164Y-80857140D01*
X136445015Y-80887702D01*
X136225504Y-80963061D01*
X136225495Y-80963064D01*
X136021371Y-81073531D01*
X136021365Y-81073535D01*
X135838222Y-81216081D01*
X135838219Y-81216084D01*
X135681016Y-81386852D01*
X135554075Y-81581151D01*
X135460842Y-81793699D01*
X135403866Y-82018691D01*
X135403864Y-82018702D01*
X135384700Y-82249993D01*
X135384700Y-82250006D01*
X130005500Y-82250006D01*
X130005499Y-80287128D01*
X129999091Y-80227517D01*
X129948796Y-80092669D01*
X129948795Y-80092668D01*
X129948793Y-80092664D01*
X129862547Y-79977455D01*
X129862544Y-79977452D01*
X129747335Y-79891206D01*
X129747328Y-79891202D01*
X129612482Y-79840908D01*
X129612483Y-79840908D01*
X129552883Y-79834501D01*
X129552881Y-79834500D01*
X129552873Y-79834500D01*
X129552864Y-79834500D01*
X126857129Y-79834500D01*
X126857123Y-79834501D01*
X126797516Y-79840908D01*
X126662671Y-79891202D01*
X126662664Y-79891206D01*
X126547455Y-79977452D01*
X126547452Y-79977455D01*
X126461206Y-80092664D01*
X126461202Y-80092671D01*
X126410908Y-80227517D01*
X126404501Y-80287116D01*
X126404501Y-80287123D01*
X126404500Y-80287135D01*
X126404500Y-82393480D01*
X126384815Y-82460519D01*
X126368181Y-82481161D01*
X124045888Y-84803453D01*
X124045887Y-84803454D01*
X123993869Y-84881307D01*
X123993868Y-84881308D01*
X123969223Y-84918191D01*
X123916421Y-85045667D01*
X123916418Y-85045677D01*
X123889500Y-85181004D01*
X123889500Y-85181007D01*
X123889500Y-100911006D01*
X123889500Y-101048994D01*
X123889500Y-101048996D01*
X123889499Y-101048996D01*
X120240500Y-101048996D01*
X120240500Y-73855627D01*
X121979449Y-73855627D01*
X122011110Y-74096124D01*
X122073896Y-74330443D01*
X122160786Y-74540214D01*
X122166725Y-74554551D01*
X122288013Y-74764628D01*
X122288015Y-74764631D01*
X122288016Y-74764632D01*
X122435682Y-74957075D01*
X122435688Y-74957082D01*
X122607205Y-75128599D01*
X122607211Y-75128604D01*
X122799660Y-75276275D01*
X123009737Y-75397563D01*
X123233849Y-75490393D01*
X123468160Y-75553177D01*
X123599744Y-75570500D01*
X123708660Y-75584839D01*
X123708661Y-75584839D01*
X123951238Y-75584839D01*
X123999337Y-75578506D01*
X124191738Y-75553177D01*
X124426049Y-75490393D01*
X124650161Y-75397563D01*
X124801814Y-75310006D01*
X156304700Y-75310006D01*
X156323864Y-75541297D01*
X156323866Y-75541308D01*
X156380842Y-75766300D01*
X156474075Y-75978848D01*
X156601016Y-76173147D01*
X156601019Y-76173151D01*
X156601021Y-76173153D01*
X156758216Y-76343913D01*
X156758219Y-76343915D01*
X156758222Y-76343918D01*
X156941365Y-76486464D01*
X156941371Y-76486468D01*
X156941374Y-76486470D01*
X157145497Y-76596936D01*
X157259487Y-76636068D01*
X157365015Y-76672297D01*
X157365017Y-76672297D01*
X157365019Y-76672298D01*
X157593951Y-76710500D01*
X157593952Y-76710500D01*
X157826048Y-76710500D01*
X157826049Y-76710500D01*
X158054981Y-76672298D01*
X158274503Y-76596936D01*
X158478626Y-76486470D01*
X158661784Y-76343913D01*
X158818979Y-76173153D01*
X158945924Y-75978849D01*
X159039157Y-75766300D01*
X159096134Y-75541305D01*
X159096135Y-75541297D01*
X159115300Y-75310006D01*
X159115300Y-75309993D01*
X159096135Y-75078702D01*
X159096133Y-75078691D01*
X159039157Y-74853699D01*
X158945924Y-74641151D01*
X158818983Y-74446852D01*
X158818980Y-74446849D01*
X158818979Y-74446847D01*
X158661784Y-74276087D01*
X158661779Y-74276083D01*
X158661777Y-74276081D01*
X158478634Y-74133535D01*
X158478628Y-74133531D01*
X158274504Y-74023064D01*
X158274495Y-74023061D01*
X158054984Y-73947702D01*
X157883282Y-73919050D01*
X157826049Y-73909500D01*
X157593951Y-73909500D01*
X157548164Y-73917140D01*
X157365015Y-73947702D01*
X157145504Y-74023061D01*
X157145495Y-74023064D01*
X156941371Y-74133531D01*
X156941365Y-74133535D01*
X156758222Y-74276081D01*
X156758219Y-74276084D01*
X156601016Y-74446852D01*
X156474075Y-74641151D01*
X156380842Y-74853699D01*
X156323866Y-75078691D01*
X156323864Y-75078702D01*
X156304700Y-75309993D01*
X156304700Y-75310006D01*
X124801814Y-75310006D01*
X124860238Y-75276275D01*
X125052687Y-75128604D01*
X125224214Y-74957077D01*
X125371885Y-74764628D01*
X125493173Y-74554551D01*
X125586003Y-74330439D01*
X125648787Y-74096128D01*
X125680449Y-73855627D01*
X125680449Y-73841288D01*
X176339500Y-73841288D01*
X176371161Y-74081785D01*
X176433947Y-74316104D01*
X176526773Y-74540205D01*
X176526777Y-74540214D01*
X176535055Y-74554551D01*
X176648064Y-74750289D01*
X176648066Y-74750292D01*
X176648067Y-74750293D01*
X176795733Y-74942736D01*
X176795739Y-74942743D01*
X176967256Y-75114260D01*
X176967262Y-75114265D01*
X177159711Y-75261936D01*
X177369788Y-75383224D01*
X177593900Y-75476054D01*
X177828211Y-75538838D01*
X178008586Y-75562584D01*
X178068711Y-75570500D01*
X178068712Y-75570500D01*
X178311289Y-75570500D01*
X178359388Y-75564167D01*
X178551789Y-75538838D01*
X178786100Y-75476054D01*
X179010212Y-75383224D01*
X179220289Y-75261936D01*
X179412738Y-75114265D01*
X179584265Y-74942738D01*
X179731936Y-74750289D01*
X179853224Y-74540212D01*
X179946054Y-74316100D01*
X180008838Y-74081789D01*
X180040500Y-73841288D01*
X180040500Y-73598712D01*
X180008838Y-73358211D01*
X179946054Y-73123900D01*
X179853224Y-72899788D01*
X179731936Y-72689711D01*
X179671018Y-72610321D01*
X179584266Y-72497263D01*
X179584260Y-72497256D01*
X179412743Y-72325739D01*
X179412736Y-72325733D01*
X179220293Y-72178067D01*
X179220292Y-72178066D01*
X179220289Y-72178064D01*
X179010212Y-72056776D01*
X179010205Y-72056773D01*
X178786104Y-71963947D01*
X178551785Y-71901161D01*
X178311289Y-71869500D01*
X178311288Y-71869500D01*
X178068712Y-71869500D01*
X178068711Y-71869500D01*
X177828214Y-71901161D01*
X177593895Y-71963947D01*
X177369794Y-72056773D01*
X177369785Y-72056777D01*
X177159706Y-72178067D01*
X176967263Y-72325733D01*
X176967256Y-72325739D01*
X176795739Y-72497256D01*
X176795733Y-72497263D01*
X176648067Y-72689706D01*
X176526777Y-72899785D01*
X176526773Y-72899794D01*
X176433947Y-73123895D01*
X176371161Y-73358214D01*
X176339500Y-73598711D01*
X176339500Y-73841288D01*
X125680449Y-73841288D01*
X125680449Y-73613051D01*
X125648787Y-73372550D01*
X125586003Y-73138239D01*
X125493173Y-72914127D01*
X125371885Y-72704050D01*
X125224214Y-72511601D01*
X125224209Y-72511595D01*
X125052692Y-72340078D01*
X125052685Y-72340072D01*
X124860242Y-72192406D01*
X124860241Y-72192405D01*
X124860238Y-72192403D01*
X124650161Y-72071115D01*
X124615544Y-72056776D01*
X124426053Y-71978286D01*
X124191734Y-71915500D01*
X123951238Y-71883839D01*
X123951237Y-71883839D01*
X123708661Y-71883839D01*
X123708660Y-71883839D01*
X123468163Y-71915500D01*
X123233844Y-71978286D01*
X123009743Y-72071112D01*
X123009734Y-72071116D01*
X122799655Y-72192406D01*
X122607212Y-72340072D01*
X122607205Y-72340078D01*
X122435688Y-72511595D01*
X122435682Y-72511602D01*
X122288016Y-72704045D01*
X122166726Y-72914124D01*
X122166722Y-72914133D01*
X122073896Y-73138234D01*
X122011110Y-73372553D01*
X121979449Y-73613050D01*
X121979449Y-73855627D01*
X120240500Y-73855627D01*
X120240500Y-70404500D01*
X120260185Y-70337461D01*
X120312989Y-70291706D01*
X120364500Y-70280500D01*
X181905500Y-70280500D01*
X181972539Y-70300185D01*
G37*
%TD.AperFunction*%
%TD*%
M02*
